<svg width="333" height="206" viewBox="0 0 333 206" fill="none" xmlns="http://www.w3.org/2000/svg">
<mask id="mask0_870_6549" style="mask-type:luminance" maskUnits="userSpaceOnUse" x="0" y="0" width="333" height="206">
<path d="M332.5 0H0.5V206H332.5V0Z" fill="white"/>
</mask>
<g mask="url(#mask0_870_6549)">
<path d="M314.981 124.175C303.247 156.687 281.188 185.171 250.547 197.689C246.562 199.315 242.493 200.694 238.36 201.819C216.499 207.784 192.583 205.709 172.432 194.841C163.879 190.224 156.08 184.124 147.496 179.574C138.913 175.023 129.11 172.045 119.768 174.291C111.723 176.225 104.937 181.767 98.1031 186.704C81.9941 198.344 62.6246 207.555 43.5494 203.557C34.7721 201.72 26.1289 196.631 22.0526 188.124C13.043 169.318 30.0349 146.959 26.5937 126.161C24.3915 112.85 14.3337 102.882 8.08118 91.1349C-2.61942 71.0413 -1.35445 44.3502 11.192 25.5221C23.7384 6.69381 46.9003 -3.29358 68.1363 0.977651C94.032 6.18823 113.611 29.6413 138.791 37.9406C154.539 43.1263 171.636 41.5792 186.677 34.7496C210.977 23.7124 244.362 6.78498 271.708 9.54222C286.25 11.0092 300.514 17.9162 310.112 29.7103C322.245 44.5989 325.883 65.7368 323.859 85.369C322.47 98.6587 319.486 111.701 314.981 124.175Z" fill="url(#paint0_linear_870_6549)"/>
<path d="M322.788 149.891C322.248 149.89 321.711 149.821 321.187 149.684C319.53 149.248 318.092 148.152 317.165 146.619C316.238 145.086 315.892 143.232 316.197 141.436C316.504 139.64 317.441 138.037 318.814 136.954C320.188 135.871 321.897 135.39 323.59 135.61C325.284 135.829 326.835 136.732 327.927 138.134C329.022 139.536 329.572 141.332 329.471 143.154C329.368 144.977 328.619 146.689 327.378 147.941C326.136 149.193 324.494 149.89 322.788 149.891ZM322.769 138.79C321.881 138.793 321.024 139.144 320.361 139.777C319.697 140.41 319.274 141.28 319.168 142.225C319.065 143.17 319.287 144.122 319.793 144.903C320.299 145.685 321.055 146.24 321.92 146.465C322.857 146.708 323.846 146.543 324.669 146.006C325.493 145.469 326.082 144.604 326.309 143.601C326.539 142.599 326.384 141.54 325.88 140.659C325.379 139.778 324.571 139.147 323.634 138.903C323.35 138.828 323.061 138.789 322.769 138.787V138.79Z" fill="#E7F6FF"/>
<path d="M316.677 157.491C317.057 155.811 316.094 154.118 314.521 153.711C312.952 153.303 311.372 154.335 310.99 156.015C310.61 157.695 311.573 159.388 313.143 159.795C314.715 160.202 316.295 159.171 316.677 157.491Z" fill="#E7F6FF"/>
<path d="M14.747 149.208C12.9732 149.167 11.2862 148.378 10.0523 147.014C8.81846 145.649 8.13729 143.819 8.15665 141.92C8.17604 140.022 8.89441 138.208 10.1558 136.872C11.4173 135.537 13.1199 134.788 14.8942 134.788C16.6684 134.788 18.3711 135.537 19.6325 136.872C20.8939 138.208 21.6123 140.022 21.6316 141.92C21.651 143.819 20.9698 145.649 19.736 147.014C18.5021 148.378 16.8151 149.167 15.0413 149.208H14.747ZM14.747 138.11H14.5947C13.6365 138.132 12.7252 138.559 12.0587 139.296C11.3923 140.033 11.0244 141.022 11.0349 142.047C11.0455 143.073 11.4336 144.053 12.115 144.774C12.7965 145.495 13.7163 145.9 14.6747 145.9C15.6332 145.9 16.5529 145.495 17.2344 144.774C17.9159 144.053 18.304 143.073 18.3145 142.047C18.325 141.022 17.9572 140.033 17.2907 139.296C16.6242 138.559 15.713 138.132 14.7548 138.11H14.747Z" fill="#E7F6FF"/>
<path d="M9.94459 161.304C11.5585 161.23 12.8104 159.769 12.7407 158.042C12.6711 156.315 11.3064 154.975 9.69247 155.05C8.0786 155.124 6.82672 156.585 6.89632 158.312C6.96595 160.039 8.33069 161.379 9.94459 161.304Z" fill="#E7F6FF"/>
<path d="M183.553 32.6716C181.946 32.6733 180.39 32.0591 179.169 30.9396C177.948 29.8204 177.141 28.2703 176.896 26.5697C176.65 24.8691 176.981 23.1306 177.83 21.6689C178.678 20.2071 179.987 19.1187 181.52 18.6007C183.054 18.0827 184.71 18.1693 186.189 18.8448C187.667 19.5203 188.871 20.7401 189.583 22.2834C190.294 23.8267 190.465 25.5915 190.066 27.2583C189.666 28.925 188.722 30.3838 187.405 31.3704C186.276 32.216 184.931 32.6702 183.553 32.6716ZM183.533 21.5764C182.593 21.5754 181.689 21.9626 181.01 22.6572C180.33 23.3518 179.927 24.3003 179.885 25.305C179.843 26.3096 180.165 27.2929 180.783 28.0501C181.402 28.8071 182.27 29.2795 183.206 29.3685C184.141 29.4577 185.074 29.1571 185.808 28.5289C186.541 27.9009 187.02 26.9938 187.145 25.9969C187.269 25.0001 187.029 23.9904 186.475 23.1782C185.921 22.366 185.095 21.814 184.17 21.6372C183.96 21.597 183.746 21.5767 183.533 21.5764Z" fill="#E7F6FF"/>
<path d="M169.82 32.2783C171.143 31.2857 171.463 29.3338 170.536 27.9181C169.608 26.5028 167.784 26.16 166.462 27.1526C165.139 28.1452 164.819 30.0971 165.746 31.5128C166.674 32.9281 168.498 33.271 169.82 32.2783Z" fill="#E7F6FF"/>
<path d="M332.489 69.8029C332.489 66.7653 331.36 63.8517 329.355 61.7036C327.346 59.5553 324.625 58.3485 321.785 58.3485C321.548 58.3485 321.313 58.3485 321.081 58.3734C321.096 58.1247 321.104 57.8733 321.104 57.6191C321.104 55.9913 320.779 54.382 320.151 52.899C319.524 51.4156 318.61 50.0925 317.467 49.0178C316.323 47.9431 314.98 47.1414 313.524 46.6662C312.071 46.1907 310.538 46.0528 309.03 46.2614C307.52 46.4703 306.071 47.0206 304.776 47.876C303.482 48.7316 302.372 49.8726 301.523 51.2228C300.673 52.5732 300.103 54.1019 299.847 55.7068C299.594 57.3119 299.661 58.9566 300.049 60.5311C298.755 59.5274 297.268 58.8461 295.696 58.5375C294.124 58.2289 292.508 58.301 290.967 58.7483C289.423 59.1953 287.995 60.0064 286.782 61.1221C285.571 62.2377 284.611 63.6293 283.965 65.1946C283.323 66.7603 283.015 68.46 283.067 70.1693C283.119 71.8786 283.527 73.5537 284.262 75.0724C284.996 76.5908 286.038 77.9139 287.314 78.9444C288.589 79.9752 290.063 80.6871 291.63 81.028C292.27 82.8426 293.329 84.4539 294.71 85.7107C296.089 86.9672 297.746 87.8283 299.519 88.2132C301.296 88.598 303.136 88.4941 304.863 87.9112C306.59 87.328 308.152 86.2848 309.402 84.8793C310.68 85.9115 312.156 86.6237 313.726 86.9636C315.295 87.3037 316.914 87.2628 318.466 86.8439C320.02 86.4251 321.463 85.6388 322.694 84.5437C323.926 83.4482 324.909 82.0713 325.578 80.5142C327.609 79.69 329.357 78.2241 330.594 76.3109C331.828 74.3977 332.489 72.1281 332.489 69.8029Z" fill="white"/>
<path d="M49.9233 42.27C49.9246 40.7651 49.6488 39.2746 49.1116 37.8839C48.5747 36.4931 47.7865 35.2291 46.7929 34.1643C45.7992 33.0996 44.6192 32.2547 43.3201 31.6784C42.0211 31.1018 40.6288 30.8048 39.2227 30.8046C38.9852 30.8046 38.7502 30.8046 38.5179 30.8294C38.5334 30.5808 38.5411 30.3294 38.5411 30.0752C38.5409 28.4474 38.2161 26.838 37.5891 25.3548C36.9617 23.8716 36.0463 22.5486 34.9037 21.4738C33.7611 20.3991 32.4177 19.5973 30.9627 19.1221C29.5077 18.6468 27.9748 18.5089 26.4661 18.7175C24.9575 18.9262 23.5077 19.4766 22.2134 20.3321C20.9192 21.1876 19.8102 22.3285 18.9604 23.6788C18.1106 25.0291 17.5396 26.5578 17.2853 28.1628C17.031 29.768 17.0994 31.4126 17.4858 32.9871C16.1922 31.9831 14.705 31.3018 13.1333 30.9935C11.5616 30.6849 9.94526 30.757 8.40296 31.204C6.86062 31.6513 5.43147 32.4625 4.22032 33.5781C3.00917 34.6937 2.04678 36.0853 1.40379 37.6507C0.760791 39.2163 0.453502 40.916 0.50447 42.6253C0.555437 44.3344 0.963367 46.0097 1.69832 47.5281C2.43328 49.0468 3.47663 50.3699 4.75177 51.4004C6.02691 52.4309 7.5015 53.1432 9.06732 53.4841C9.70722 55.297 10.7665 56.9066 12.1459 58.162C13.5254 59.4177 15.18 60.278 16.9548 60.6629C18.7296 61.0477 20.5666 60.9441 22.2939 60.3623C24.0212 59.7804 25.5823 58.7389 26.8311 57.3354C28.1088 58.3675 29.5862 59.0798 31.1553 59.4196C32.7241 59.7597 34.344 59.7188 35.8963 59.2997C37.4484 58.8809 38.893 58.0949 40.1236 56.9994C41.3543 55.904 42.3397 54.5273 43.0073 52.9702C45.0379 52.1477 46.7869 50.6837 48.0222 48.7727C49.2572 46.8617 49.9204 44.5938 49.9233 42.27Z" fill="white"/>
<path d="M246.827 205.254H92.8369V201.662H246.827C247.273 201.662 247.699 201.851 248.014 202.188C248.329 202.525 248.505 202.982 248.505 203.458C248.505 203.934 248.329 204.391 248.014 204.728C247.699 205.064 247.273 205.254 246.827 205.254Z" fill="#426572"/>
<path d="M85.9494 205.254H76.5345C76.0894 205.254 75.6627 205.064 75.348 204.728C75.0333 204.391 74.8564 203.934 74.8564 203.458C74.8564 202.982 75.0333 202.525 75.348 202.188C75.6627 201.851 76.0894 201.662 76.5345 201.662H85.9494C86.3945 201.662 86.8212 201.851 87.1359 202.188C87.4506 202.525 87.6275 202.982 87.6275 203.458C87.6275 203.934 87.4506 204.391 87.1359 204.728C86.8212 205.064 86.3945 205.254 85.9494 205.254Z" fill="#426572"/>
<path d="M70.4239 205.254H67.4241C66.979 205.254 66.5523 205.064 66.2376 204.728C65.9229 204.391 65.7461 203.934 65.7461 203.458C65.7461 202.982 65.9229 202.525 66.2376 202.188C66.5523 201.851 66.979 201.662 67.4241 201.662H70.4239C70.869 201.662 71.2957 201.851 71.6104 202.188C71.9251 202.525 72.1019 202.982 72.1019 203.458C72.1019 203.934 71.9251 204.391 71.6104 204.728C71.2957 205.064 70.869 205.254 70.4239 205.254Z" fill="#426572"/>
<path d="M300.824 205.254H253.493V201.662H300.824C301.268 201.662 301.696 201.851 302.011 202.188C302.326 202.525 302.502 202.982 302.502 203.458C302.502 203.934 302.326 204.391 302.011 204.728C301.696 205.064 301.268 205.254 300.824 205.254Z" fill="#426572"/>
<path d="M58.8428 205.254H11.5098V201.662H58.8428C59.2879 201.662 59.7146 201.851 60.0293 202.188C60.344 202.525 60.5209 202.982 60.5209 203.458C60.5209 203.934 60.344 204.391 60.0293 204.728C59.7146 205.064 59.2879 205.254 58.8428 205.254Z" fill="#426572"/>
<path d="M73.8413 65.0791H246.244C249.355 65.0791 252.339 66.4014 254.54 68.7555C256.741 71.1099 257.978 74.3029 257.979 77.6331V197.056H62.1055V77.6331C62.1068 74.3029 63.3438 71.1099 65.5446 68.7555C67.7452 66.4014 70.7295 65.0791 73.8413 65.0791Z" fill="#EBF0F9"/>
<path d="M251.172 74.2373H69.6904V185.19H251.172V74.2373Z" fill="#637F91"/>
<path d="M68.3297 184.983H251.944C251.944 185.864 251.618 186.709 251.037 187.333C250.457 187.958 249.669 188.311 248.846 188.315H71.4405C70.6147 188.315 69.8229 187.964 69.239 187.339C68.655 186.715 68.3271 185.867 68.3271 184.983H68.3297Z" fill="white"/>
<g opacity="0.5">
<path opacity="0.5" d="M123.921 73.8232L96.7863 185.815H83.1221L110.257 73.8232H123.921Z" fill="#A7BCD5"/>
<path opacity="0.5" d="M158.749 73.8232L131.616 185.815H102.961L130.096 73.8232H158.749Z" fill="#A7BCD5"/>
</g>
<path d="M259.528 198.714H60.5566V72.2793C60.5592 69.9309 61.4321 67.6798 62.9838 66.0192C64.5354 64.3587 66.6388 63.4246 68.8332 63.4219H251.252C253.446 63.4246 255.55 64.3587 257.101 66.0192C258.653 67.6798 259.526 69.9309 259.528 72.2793V198.714ZM63.6545 195.399H256.431V72.2793C256.429 70.8098 255.883 69.401 254.912 68.362C253.941 67.3229 252.625 66.7386 251.252 66.7372H68.8332C67.46 66.7386 66.1437 67.3229 65.1727 68.362C64.2018 69.401 63.6558 70.8098 63.6545 72.2793V195.399Z" fill="#426572"/>
<path d="M37.4023 193.104H287.936V193.985C287.936 196.843 286.875 199.583 284.988 201.604C283.098 203.624 280.537 204.76 277.868 204.76H47.4705C44.8001 204.76 42.2392 203.624 40.3513 201.604C38.4631 199.583 37.4023 196.843 37.4023 193.985V193.104Z" fill="#EBF0F9"/>
<path opacity="0.5" d="M286.653 198.723C286.103 200.255 285.13 201.573 283.865 202.503C282.6 203.432 281.1 203.929 279.567 203.928H44.2101C42.6764 203.928 41.1789 203.43 39.9147 202.501C38.6507 201.572 37.6793 200.255 37.1289 198.723H286.653Z" fill="#A7BCD5"/>
<path d="M276.699 206H46.3016C43.2216 205.996 40.2688 204.685 38.091 202.354C35.9129 200.023 34.6879 196.863 34.6846 193.567V191.028H288.316V193.567C288.313 196.863 287.087 200.023 284.911 202.354C282.732 204.685 279.779 205.996 276.699 206ZM37.8134 194.344C37.9952 196.619 38.9682 198.738 40.5398 200.283C42.1117 201.827 44.1677 202.684 46.3016 202.684H276.699C278.834 202.684 280.889 201.827 282.461 200.283C284.033 198.738 285.006 196.619 285.187 194.344H37.8134Z" fill="#426572"/>
<path d="M252.331 186.224H67.749V72.5801H252.331V186.224ZM70.8469 182.908H249.233V75.8954H70.8469V182.908Z" fill="#426572"/>
<path d="M223.43 38.6203V184.566H99.7188V38.6203C99.7234 37.9625 99.9697 37.3328 100.404 36.8676C100.839 36.4023 101.427 36.1388 102.042 36.1338H221.096C221.237 36.1338 221.377 36.1479 221.515 36.1752C222.049 36.281 222.533 36.583 222.883 37.0292C223.232 37.4754 223.426 38.0382 223.43 38.6203Z" fill="white"/>
<path d="M101.666 48.1963H223.821V39.4163L221.484 36.123H114.504H104L100.109 39.4163V48.1963H101.666Z" fill="#E2F2FF"/>
<path d="M225.366 186.224H98.5596V38.6207C98.5634 37.5231 98.9729 36.4716 99.698 35.6952C100.423 34.9189 101.406 34.481 102.432 34.4766H221.481C222.507 34.481 223.489 34.9189 224.215 35.6952C224.94 36.4716 225.349 37.5231 225.353 38.6207L225.366 186.224ZM101.655 182.909H222.268V38.6207C222.263 38.4027 222.18 38.195 222.036 38.0408C221.891 37.8866 221.698 37.7974 221.494 37.7919H102.442C102.238 37.7974 102.044 37.8866 101.9 38.0408C101.756 38.195 101.673 38.4027 101.668 38.6207L101.655 182.909Z" fill="#426572"/>
<path d="M216.21 41.2393H107.387C106.527 41.2393 105.83 41.9849 105.83 42.9052C105.83 43.8252 106.527 44.5712 107.387 44.5712H216.21C217.07 44.5712 217.767 43.8252 217.767 42.9052C217.767 41.9849 217.07 41.2393 216.21 41.2393Z" fill="#CADCE8"/>
<path d="M80.843 176.662H43.9111C43.3029 176.666 42.7037 176.507 42.1686 176.197C41.3941 175.744 40.8984 175.001 40.8984 174.164L40.9191 119.832C40.9196 119.476 41.0087 119.127 41.1772 118.82C41.6471 117.947 42.7081 117.334 43.9318 117.334H80.8637C82.1545 117.334 83.2413 118.003 83.675 118.936C83.8069 119.213 83.8759 119.519 83.8764 119.829L83.8583 174.164C83.8583 175.418 82.725 176.465 81.2613 176.637C81.1224 176.654 80.9827 176.662 80.843 176.662Z" fill="white"/>
<path d="M81.8472 176.245L44.9023 176.237C44.2941 176.241 43.6947 176.082 43.1598 175.773C42.3853 175.32 41.8896 174.576 41.8896 173.739L41.9103 119.407C41.9108 119.051 41.9999 118.702 42.1685 118.396C42.6383 117.523 43.6993 116.909 44.923 116.909H45.4264L45.4187 170.407C45.4187 171.236 45.9195 171.988 46.6888 172.441C47.2237 172.75 47.8231 172.91 48.4313 172.905H84.8624V173.734C84.8624 174.988 83.7291 176.035 82.2654 176.206C82.1267 176.228 81.9871 176.241 81.8472 176.245Z" fill="#D6DEE9"/>
<path d="M81.3432 177.903H44.4087C43.5376 177.908 42.6798 177.677 41.9149 177.232C40.6241 176.466 39.8496 175.162 39.8496 173.748L39.8703 119.415C39.8736 118.767 40.0365 118.132 40.3427 117.572C41.1172 116.15 42.6661 115.263 44.4345 115.263H81.369C83.1761 115.263 84.7896 116.216 85.5227 117.697L85.7292 118.037V118.191C85.8627 118.585 85.9309 119.002 85.9306 119.421L85.91 173.75C85.91 175.834 84.1984 177.618 81.9318 177.87C81.7363 177.893 81.5396 177.904 81.3432 177.903ZM44.4267 118.564C43.7323 118.564 43.1902 118.893 43.0172 119.219C42.9834 119.274 42.9645 119.338 42.963 119.404L42.9423 173.734C42.9423 173.916 43.1308 174.148 43.4122 174.317C43.7189 174.491 44.0614 174.58 44.4087 174.576H81.3406C81.4216 174.577 81.5027 174.572 81.5832 174.563C82.3577 174.474 82.8069 174.01 82.8069 173.734L82.8276 119.401C82.8278 119.368 82.8224 119.336 82.8121 119.305L82.6675 119.067C82.3105 118.722 81.8417 118.541 81.3612 118.561H44.4267V118.564Z" fill="#426572"/>
<path d="M77.0845 140.845H52.0381V144.16H77.0845V140.845Z" fill="#426572"/>
<path d="M77.0845 133.927H52.0381V137.242H77.0845V133.927Z" fill="#426572"/>
<path d="M77.0845 148.684H52.0381V151.999H77.0845V148.684Z" fill="#426572"/>
<path opacity="0.2" d="M277.244 78.4622C279.048 74.8378 280.156 70.8633 280.501 66.7733C280.847 62.683 280.424 58.5604 279.257 54.6481C278.09 50.736 276.201 47.1137 273.704 43.9948C271.208 40.8762 268.154 38.3243 264.72 36.4895C261.287 34.6548 257.545 33.5745 253.716 33.3126C249.886 33.0507 246.046 33.6124 242.423 34.9642C238.799 36.3163 235.465 38.4315 232.618 41.1845C229.771 43.9379 227.468 47.2734 225.844 50.9948C223.603 55.4995 222.444 60.5303 222.472 65.6336C222.5 70.7373 223.715 75.7531 226.006 80.229C228.297 84.705 231.593 88.5005 235.596 91.2735C239.6 94.0465 244.185 95.7099 248.939 96.1136C248.109 96.3235 247.267 96.4937 246.412 96.6247C250.912 97.3189 255.502 96.8606 259.805 95.2872C264.106 93.7138 267.999 91.0704 271.161 87.5738C273.691 84.9594 275.754 81.8712 277.244 78.4622Z" fill="#606060"/>
<path d="M248.009 88.9328C263.878 88.9328 276.742 75.1656 276.742 58.1832C276.742 41.2008 263.878 27.4336 248.009 27.4336C232.141 27.4336 219.276 41.2008 219.276 58.1832C219.276 75.1656 232.141 88.9328 248.009 88.9328Z" fill="#A8EF9E"/>
<path d="M275.372 60.3804C275.372 64.7892 274.484 69.1461 272.772 73.156C271.061 77.1658 268.562 80.7348 265.449 83.621C262.335 86.5073 258.677 88.6432 254.724 89.8839C250.771 91.1247 246.614 91.4413 242.537 90.8122C249.374 89.7547 255.626 86.0959 260.149 80.5068C264.669 74.9178 267.16 67.7722 267.16 60.379C267.16 52.9858 264.669 45.8402 260.149 40.2512C255.626 34.6621 249.374 31.0036 242.537 29.9458C246.615 29.3164 250.772 29.6328 254.725 30.8735C258.68 32.1143 262.338 34.2502 265.451 37.1367C268.564 40.0232 271.063 43.5927 272.775 47.6032C274.487 51.6136 275.375 55.9713 275.375 60.3804H275.372Z" fill="#A7E59C"/>
<path d="M247.325 92.0528C241.336 92.0528 235.481 90.152 230.501 86.591C225.521 83.0301 221.64 77.9687 219.348 72.0473C217.056 66.1256 216.456 59.6096 217.625 53.3232C218.793 47.0368 221.677 41.2624 225.912 36.7301C230.147 32.198 235.543 29.1115 241.417 27.861C247.291 26.6105 253.38 27.2523 258.914 29.7052C264.446 32.158 269.175 36.3118 272.503 41.6411C275.831 46.9702 277.607 53.2359 277.607 59.6455C277.599 68.2374 274.406 76.4749 268.729 82.5505C263.049 88.6258 255.353 92.0431 247.325 92.0528ZM247.325 30.5564C241.948 30.5564 236.693 32.2627 232.222 35.4592C227.752 38.656 224.268 43.1993 222.21 48.5152C220.153 53.831 219.614 59.6806 220.663 65.3238C221.712 70.9671 224.301 76.1508 228.103 80.2193C231.905 84.288 236.748 87.0588 242.022 88.1813C247.295 89.3038 252.76 88.7275 257.728 86.5256C262.696 84.3236 266.94 80.595 269.927 75.8107C272.913 71.0267 274.509 65.402 274.509 59.6483C274.501 51.9352 271.636 44.5401 266.54 39.0861C261.441 33.6319 254.532 30.5644 247.325 30.5564Z" fill="#426572"/>
<path d="M181.984 137.886H142.338C139.79 137.883 137.346 136.798 135.543 134.87C133.741 132.941 132.727 130.325 132.725 127.598V69.726C132.727 66.9981 133.741 64.3829 135.543 62.4542C137.346 60.5252 139.79 59.4403 142.338 59.4375H181.984C184.532 59.4403 186.976 60.5252 188.778 62.4542C190.581 64.3829 191.594 66.9981 191.597 69.726V127.598C191.594 130.325 190.581 132.941 188.778 134.87C186.976 136.798 184.532 137.883 181.984 137.886ZM144.731 125.026H179.583V72.2982H144.731V125.026Z" fill="#FBC907"/>
<path opacity="0.6" d="M191.672 90.9463V130.178C191.669 132.905 190.655 135.52 188.853 137.449C187.05 139.378 184.607 140.463 182.058 140.466H142.4C139.851 140.463 137.407 139.378 135.605 137.449C133.802 135.52 132.789 132.905 132.786 130.178V90.9463H144.808V127.597H179.66V90.9463H191.672Z" fill="#F3A70F"/>
<path d="M181.984 141.152H142.338C139.379 141.149 136.542 139.889 134.449 137.649C132.356 135.41 131.179 132.373 131.176 129.206V71.3346C131.182 68.1693 132.36 65.1357 134.453 62.8985C136.545 60.6614 139.381 59.403 142.338 59.3994H181.984C184.943 59.403 187.78 60.6628 189.873 62.9023C191.966 65.1421 193.143 68.1784 193.146 71.3456V129.206C193.143 132.373 191.966 135.41 189.873 137.649C187.78 139.889 184.943 141.149 181.984 141.152ZM142.338 62.7147C140.2 62.7178 138.151 63.6278 136.639 65.246C135.127 66.8639 134.277 69.0575 134.274 71.3456V129.206C134.276 131.495 135.126 133.688 136.638 135.307C138.15 136.925 140.2 137.835 142.338 137.837H181.984C184.122 137.835 186.172 136.925 187.684 135.307C189.196 133.688 190.046 131.495 190.048 129.206V71.3346C190.043 69.0484 189.191 66.8575 187.68 65.2421C186.168 63.6264 184.12 62.7178 181.984 62.7147H142.338ZM181.139 128.303H143.19V72.249H181.139V128.303ZM146.288 124.987H178.042V75.5644H146.288V124.987Z" fill="#426572"/>
<path d="M195.895 98.1133H127.832C126.121 98.1133 124.734 99.5974 124.734 101.429V165.978C124.734 167.809 126.121 169.293 127.832 169.293H195.895C197.606 169.293 198.993 167.809 198.993 165.978V101.429C198.993 99.5974 197.606 98.1133 195.895 98.1133Z" fill="#FBC907"/>
<path opacity="0.6" d="M199.597 101.912V165.699C199.594 166.679 199.23 167.617 198.582 168.31C197.935 169.002 197.058 169.393 196.143 169.396H163.065V98.2158H196.143C197.058 98.2189 197.935 98.6092 198.582 99.3019C199.23 99.9945 199.594 100.933 199.597 101.912Z" fill="#F3A70F"/>
<path d="M195.895 170.261H127.832C126.6 170.261 125.418 169.737 124.547 168.804C123.675 167.872 123.186 166.607 123.186 165.288V100.739C123.186 99.4197 123.675 98.1549 124.547 97.2222C125.418 96.2894 126.6 95.7656 127.832 95.7656H195.895C197.128 95.7656 198.31 96.2894 199.181 97.2222C200.053 98.1549 200.542 99.4197 200.542 100.739V165.288C200.542 166.607 200.053 167.872 199.181 168.804C198.31 169.737 197.128 170.261 195.895 170.261ZM127.832 99.0809C127.421 99.0809 127.027 99.2555 126.737 99.5664C126.447 99.8772 126.283 100.299 126.283 100.739V165.288C126.283 165.727 126.447 166.149 126.737 166.46C127.027 166.771 127.421 166.945 127.832 166.945H195.895C196.306 166.945 196.7 166.771 196.991 166.46C197.281 166.149 197.444 165.727 197.444 165.288V100.739C197.444 100.299 197.281 99.8772 196.991 99.5664C196.7 99.2555 196.306 99.0809 195.895 99.0809H127.832Z" fill="#426572"/>
<path d="M262.355 47.901C261.736 47.5302 261.005 47.4308 260.318 47.6233C259.632 47.8159 259.04 48.2858 258.671 48.934L253.697 57.6367L245.748 71.5279L245.526 71.9174L236.348 64.0601L234.676 62.6293C233.578 61.6899 231.924 61.3943 230.868 62.6293C229.969 63.6764 229.693 65.6984 230.868 66.7041L242.668 76.8048L244.341 78.2359C245.035 78.8326 245.696 79.1586 246.602 79.0288C247.007 78.9757 247.395 78.8232 247.736 78.5837C248.077 78.3442 248.363 78.024 248.57 77.6474L253.544 68.9447L261.495 55.0563L263.331 51.8462C264.056 50.5588 263.623 48.6248 262.355 47.901Z" fill="white"/>
</g>
<defs>
<linearGradient id="paint0_linear_870_6549" x1="0.839887" y1="102.551" x2="324.383" y2="102.551" gradientUnits="userSpaceOnUse">
<stop stop-color="#C5E9FA"/>
<stop offset="1" stop-color="#C4F4EA"/>
</linearGradient>
</defs>
</svg>
