<svg width="253" height="135" viewBox="0 0 253 135" fill="none" xmlns="http://www.w3.org/2000/svg">
<g opacity="0.3">
<path d="M57.1349 46.6507V122.357C57.135 123.112 56.9856 123.859 56.6956 124.556C56.4056 125.252 55.9805 125.885 55.445 126.416C54.9094 126.948 54.274 127.369 53.5752 127.654C52.8764 127.939 52.1282 128.083 51.3735 128.077H41.4983C43.4221 128.077 45.2671 127.313 46.6274 125.953C47.9877 124.592 48.7519 122.747 48.7519 120.823C48.7519 118.9 47.9877 117.055 46.6274 115.694C45.2671 114.334 43.4221 113.57 41.4983 113.57H7.85219C5.92843 113.57 4.08346 112.806 2.72315 111.445C1.36284 110.085 0.598633 108.24 0.598633 106.316C0.598633 104.393 1.36284 102.548 2.72315 101.187C4.08346 99.827 5.92843 99.0628 7.85219 99.0628H26.2348C28.1585 99.0628 30.0035 98.2986 31.3638 96.9383C32.7241 95.578 33.4883 93.733 33.4883 91.8093C33.4883 89.8855 32.7241 88.0405 31.3638 86.6802C30.0035 85.3199 28.1585 84.5557 26.2348 84.5557H7.85219C5.92843 84.5557 4.08346 83.7915 2.72315 82.4312C1.36284 81.0709 0.598633 79.2259 0.598633 77.3021C0.598633 75.3784 1.36284 73.5334 2.72315 72.1731C4.08346 70.8128 5.92843 70.0486 7.85219 70.0486H31.5299C33.4536 70.0486 35.2986 69.2844 36.6589 67.9241C38.0192 66.5638 38.7834 64.7188 38.7834 62.795C38.7834 60.8713 38.0192 59.0263 36.6589 57.666C35.2986 56.3057 33.4536 55.5415 31.5299 55.5415H17.831C15.9073 55.5415 14.0623 54.7772 12.702 53.4169C11.3417 52.0566 10.5775 50.2117 10.5775 48.2879C10.5775 46.3641 11.3417 44.5192 12.702 43.1589C14.0623 41.7985 15.9073 41.0343 17.831 41.0343H51.3735C52.8799 41.0232 54.3299 41.6067 55.4086 42.6583C56.4874 43.7098 57.1077 45.1445 57.1349 46.6507Z" fill="#BDDFE9"/>
<path d="M195.896 15.512V91.2495C195.896 92.0016 196.044 92.7462 196.332 93.4409C196.62 94.1355 197.042 94.7665 197.574 95.2978C198.107 95.8291 198.739 96.2502 199.434 96.5371C200.129 96.8239 200.874 96.9709 201.626 96.9695H211.532C209.608 96.9695 207.763 96.2053 206.403 94.845C205.043 93.4847 204.279 91.6397 204.279 89.7159C204.279 87.7922 205.043 85.9472 206.403 84.5869C207.763 83.2266 209.608 82.4624 211.532 82.4624H245.147C247.071 82.4624 248.916 81.6982 250.276 80.3379C251.637 78.9775 252.401 77.1326 252.401 75.2088C252.401 73.285 251.637 71.4401 250.276 70.0798C248.916 68.7195 247.071 67.9552 245.147 67.9552H226.796C224.872 67.9552 223.027 67.191 221.667 65.8307C220.306 64.4704 219.542 62.6255 219.542 60.7017C219.542 58.7779 220.306 56.933 221.667 55.5726C223.027 54.2123 224.872 53.4481 226.796 53.4481H245.147C247.071 53.4481 248.916 52.6839 250.276 51.3236C251.637 49.9633 252.401 48.1183 252.401 46.1946C252.401 44.2708 251.637 42.4258 250.276 41.0655C248.916 39.7052 247.071 38.941 245.147 38.941H221.49C219.566 38.941 217.721 38.1768 216.361 36.8165C215.001 35.4562 214.237 33.6112 214.237 31.6875C214.237 29.7637 215.001 27.9187 216.361 26.5584C217.721 25.1981 219.566 24.4339 221.49 24.4339H235.199C237.123 24.4339 238.968 23.6697 240.328 22.3094C241.689 20.9491 242.453 19.1041 242.453 17.1803C242.453 15.2566 241.689 13.4116 240.328 12.0513C238.968 10.691 237.123 9.92677 235.199 9.92677H201.626C200.13 9.92365 198.693 10.5066 197.621 11.5506C196.55 12.5946 195.931 14.0167 195.896 15.512Z" fill="#BDDFE9"/>
</g>
<path d="M199.15 123.911C199.151 125.324 198.874 126.723 198.335 128.028C197.796 129.334 197.005 130.52 196.007 131.52C195.009 132.52 193.824 133.313 192.519 133.855C191.215 134.397 189.817 134.676 188.404 134.678H47.1359C46.0232 134.678 44.9215 134.458 43.8937 134.032C42.8659 133.606 41.9321 132.982 41.1459 132.194C40.3596 131.407 39.7362 130.473 39.3114 129.444C38.8865 128.416 38.6686 127.314 38.6699 126.201V14.1339C38.6699 11.8886 39.5619 9.73526 41.1495 8.14759C42.7372 6.55991 44.8906 5.66797 47.1359 5.66797H153.369C150.576 5.75471 147.926 6.92539 145.98 8.9321C144.035 10.9388 142.947 13.6239 142.947 16.4188C142.947 19.2136 144.035 21.8988 145.98 23.9055C147.926 25.9122 150.576 27.0829 153.369 27.1696H173.648C176.442 27.2563 179.092 28.427 181.037 30.4337C182.983 32.4404 184.07 35.1255 184.07 37.9204C184.07 40.7153 182.983 43.4004 181.037 45.4071C179.092 47.4138 176.442 48.5845 173.648 48.6712H138.614C135.764 48.6712 133.03 49.8033 131.015 51.8185C129 53.8337 127.868 56.5669 127.868 59.4169C127.868 62.2668 129 65 131.015 67.0152C133.03 69.0304 135.764 70.1625 138.614 70.1625H165.804C168.598 70.2492 171.248 71.4199 173.193 73.4266C175.138 75.4333 176.226 78.1184 176.226 80.9133C176.226 83.7082 175.138 86.3933 173.193 88.4C171.248 90.4067 168.598 91.5774 165.804 91.6641H138.614C137.174 91.6194 135.74 91.8644 134.396 92.3846C133.053 92.9047 131.827 93.6894 130.793 94.6922C129.759 95.6949 128.936 96.8952 128.375 98.2218C127.813 99.5484 127.524 100.974 127.524 102.415C127.524 103.856 127.813 105.281 128.375 106.608C128.936 107.935 129.759 109.135 130.793 110.138C131.827 111.14 133.053 111.925 134.396 112.445C135.74 112.965 137.174 113.21 138.614 113.166H188.404C191.254 113.166 193.987 114.298 196.002 116.313C198.018 118.328 199.15 121.061 199.15 123.911Z" fill="#E0F0F5"/>
<path d="M82.7712 43.8415C82.7655 49.2385 81.552 54.5658 79.2196 59.4327C76.8872 64.2997 73.495 68.5829 69.2918 71.9683C65.0887 75.3537 60.1811 77.7554 54.9289 78.9974C49.6767 80.2393 44.2132 80.2899 38.9389 79.1456L38.6281 79.0731V72.9801C31.3227 72.6138 24.3042 70.0212 18.515 65.5503L18.2145 65.3327C17.7274 64.9701 17.2404 64.597 16.7741 64.2033L16.6394 64.0167C12.9814 58.5777 10.8718 52.246 10.5366 45.6998C10.2013 39.1537 11.6531 32.6396 14.7363 26.8553C17.8196 21.071 22.4182 16.2344 28.0397 12.8634C33.6611 9.4924 40.0937 7.71403 46.6484 7.71876H47.094C48.5254 7.73834 49.9544 7.84214 51.3736 8.02963C58.1225 8.91581 64.482 11.6967 69.7147 16.05C69.9842 16.2572 70.2432 16.4852 70.4919 16.7132C74.3111 20.0654 77.3796 24.1862 79.4967 28.8059C79.7039 29.2515 79.9008 29.7074 80.077 30.1633C81.86 34.5029 82.7754 39.1499 82.7712 43.8415Z" fill="#BDDFE9"/>
<path d="M97.8377 106.461L91.5686 95.6011L86.2735 104.772L82.8746 98.886L72.2326 80.4619L61.601 98.886L50.959 117.31H72.2326H79.0303L79.0199 117.32H91.5686H104.107L97.8377 106.461Z" fill="#A8FF8C"/>
<path d="M211.543 14.1333V126.19C211.545 127.304 211.328 128.407 210.904 129.437C210.48 130.466 209.857 131.402 209.07 132.19C208.284 132.979 207.35 133.604 206.321 134.031C205.293 134.457 204.19 134.677 203.077 134.677H188.404C191.197 134.59 193.847 133.42 195.793 131.413C197.738 129.406 198.826 126.721 198.826 123.926C198.826 121.131 197.738 118.446 195.793 116.44C193.847 114.433 191.197 113.262 188.404 113.175H138.613C137.173 113.22 135.739 112.975 134.396 112.455C133.052 111.935 131.827 111.15 130.793 110.147C129.758 109.145 128.936 107.944 128.374 106.618C127.813 105.291 127.523 103.865 127.523 102.425C127.523 100.984 127.813 99.5582 128.374 98.2316C128.936 96.9049 129.758 95.7047 130.793 94.7019C131.827 93.6992 133.052 92.9145 134.396 92.3943C135.739 91.8742 137.173 91.6292 138.613 91.6739H165.804C168.597 91.5871 171.247 90.4164 173.193 88.4097C175.138 86.403 176.226 83.7179 176.226 80.923C176.226 78.1282 175.138 75.4431 173.193 73.4364C171.247 71.4297 168.597 70.259 165.804 70.1722H138.613C137.202 70.1722 135.805 69.8943 134.501 69.3543C133.197 68.8143 132.013 68.0227 131.015 67.0249C130.017 66.0271 129.226 64.8425 128.686 63.5388C128.146 62.2351 127.868 60.8377 127.868 59.4266C127.868 58.0155 128.146 56.6182 128.686 55.3144C129.226 54.0107 130.017 52.8261 131.015 51.8283C132.013 50.8305 133.197 50.039 134.501 49.4989C135.805 48.9589 137.202 48.681 138.613 48.681H173.648C176.441 48.5942 179.092 47.4236 181.037 45.4169C182.982 43.4102 184.07 40.725 184.07 37.9302C184.07 35.1353 182.982 32.4502 181.037 30.4435C179.092 28.4368 176.441 27.2661 173.648 27.1794H153.369C150.576 27.0926 147.925 25.9219 145.98 23.9152C144.035 21.9085 142.947 19.2234 142.947 16.4285C142.947 13.6337 144.035 10.9486 145.98 8.94186C147.925 6.93516 150.576 5.76447 153.369 5.67773H203.108C205.346 5.68595 207.49 6.5801 209.07 8.16464C210.651 9.74919 211.54 11.8952 211.543 14.1333Z" fill="#BDDFE9"/>
<path d="M80.3047 5.43848H100.345C100.345 6.04309 100.105 6.62294 99.6775 7.05046C99.25 7.47799 98.6702 7.71817 98.0655 7.71817H82.5844C81.9798 7.71817 81.3999 7.47799 80.9724 7.05046C80.5449 6.62294 80.3047 6.04309 80.3047 5.43848Z" fill="white"/>
<path d="M80.3047 19.6572H100.345C100.345 20.2618 100.105 20.8417 99.6775 21.2692C99.25 21.6967 98.6702 21.9369 98.0655 21.9369H82.5844C81.9798 21.9369 81.3999 21.6967 80.9724 21.2692C80.5449 20.8417 80.3047 20.2618 80.3047 19.6572Z" fill="white"/>
<path opacity="0.7" d="M102.573 19.6572H122.603C122.603 20.2618 122.363 20.8417 121.936 21.2692C121.508 21.6967 120.928 21.9369 120.324 21.9369H104.853C104.554 21.9369 104.257 21.878 103.981 21.7634C103.704 21.6488 103.453 21.4809 103.241 21.2692C103.029 21.0575 102.861 20.8062 102.747 20.5296C102.632 20.253 102.573 19.9566 102.573 19.6572Z" fill="white"/>
<path d="M57.1348 5.43848H77.1649C77.1649 6.04309 76.9248 6.62294 76.4972 7.05046C76.0697 7.47799 75.4899 7.71817 74.8853 7.71817H59.4145C58.8098 7.71817 58.23 7.47799 57.8025 7.05046C57.3749 6.62294 57.1348 6.04309 57.1348 5.43848Z" fill="white"/>
<path d="M26.5773 37.9659L21.8418 35.4894L16.5156 35.966L18.9818 31.2305L18.5052 25.9043L23.2511 28.3705L28.5773 27.8938L26.1007 32.6397L26.5773 37.9659Z" fill="#EEF0F1"/>
<path d="M23.1354 47.6644C24.1255 47.6644 24.9281 46.8618 24.9281 45.8718C24.9281 44.8817 24.1255 44.0791 23.1354 44.0791C22.1454 44.0791 21.3428 44.8817 21.3428 45.8718C21.3428 46.8618 22.1454 47.6644 23.1354 47.6644Z" fill="#EEF0F1"/>
<path d="M118.116 6.00995H109.401C109.127 6.00995 108.863 5.90077 108.669 5.70644C108.474 5.51211 108.365 5.24855 108.365 4.97372C108.365 4.6989 108.474 4.43533 108.669 4.241C108.863 4.04667 109.127 3.9375 109.401 3.9375H118.085C118.36 3.9375 118.623 4.04667 118.818 4.241C119.012 4.43533 119.121 4.6989 119.121 4.97372C119.121 5.24855 119.012 5.51211 118.818 5.70644C118.623 5.90077 118.36 6.00995 118.085 6.00995H118.116Z" fill="#183154"/>
<path d="M110.915 134.999H47.3734C44.8595 134.988 42.4522 133.982 40.6775 132.202C38.9028 130.421 37.9051 128.011 37.9023 125.497V13.4397C37.9051 10.9204 38.9071 8.50506 40.6885 6.72365C42.4699 4.94224 44.8852 3.94024 47.4045 3.9375H101.184C101.459 3.9375 101.723 4.04667 101.917 4.241C102.112 4.43533 102.221 4.6989 102.221 4.97372C102.221 5.24855 102.112 5.51211 101.917 5.70644C101.723 5.90077 101.459 6.00995 101.184 6.00995H47.3734C45.4092 6.02089 43.529 6.80816 42.1429 8.20002C40.7569 9.59188 39.9775 11.4754 39.9748 13.4397V125.497C39.9775 127.466 40.7612 129.355 42.1539 130.747C43.5467 132.14 45.4349 132.924 47.4045 132.926H110.946C111.221 132.926 111.484 133.036 111.678 133.23C111.873 133.424 111.982 133.688 111.982 133.963C111.982 134.238 111.873 134.501 111.678 134.695C111.484 134.89 111.221 134.999 110.946 134.999H110.915Z" fill="#183154"/>
<path d="M128.167 134.999H116.769C116.494 134.999 116.23 134.89 116.036 134.696C115.842 134.501 115.732 134.238 115.732 133.963C115.732 133.688 115.842 133.425 116.036 133.23C116.23 133.036 116.494 132.927 116.769 132.927H128.167C128.442 132.927 128.705 133.036 128.9 133.23C129.094 133.425 129.203 133.688 129.203 133.963C129.203 134.238 129.094 134.501 128.9 134.696C128.705 134.89 128.442 134.999 128.167 134.999Z" fill="#183154"/>
<path d="M133.391 134.999H132.541C132.266 134.999 132.003 134.89 131.808 134.696C131.614 134.501 131.505 134.238 131.505 133.963C131.505 133.688 131.614 133.425 131.808 133.23C132.003 133.036 132.266 132.927 132.541 132.927H133.391C133.666 132.927 133.929 133.036 134.124 133.23C134.318 133.425 134.427 133.688 134.427 133.963C134.427 134.238 134.318 134.501 134.124 134.696C133.929 134.89 133.666 134.999 133.391 134.999Z" fill="#183154"/>
<path d="M203.315 135H138.313C138.038 135 137.774 134.891 137.58 134.697C137.386 134.502 137.276 134.239 137.276 133.964C137.276 133.689 137.386 133.426 137.58 133.231C137.774 133.037 138.038 132.928 138.313 132.928H203.315C205.285 132.928 207.175 132.145 208.568 130.752C209.962 129.358 210.745 127.468 210.745 125.498V66.0499C210.745 65.7751 210.854 65.5115 211.048 65.3172C211.242 65.1228 211.506 65.0137 211.781 65.0137C212.056 65.0137 212.319 65.1228 212.514 65.3172C212.708 65.5115 212.817 65.7751 212.817 66.0499V125.498C212.814 128.017 211.812 130.433 210.031 132.214C208.249 133.995 205.834 134.997 203.315 135Z" fill="#183154"/>
<path d="M211.78 61.5105C211.506 61.5105 211.242 61.4013 211.048 61.207C210.853 61.0126 210.744 60.7491 210.744 60.4742V58.837C210.744 58.5622 210.853 58.2986 211.048 58.1043C211.242 57.91 211.506 57.8008 211.78 57.8008C212.055 57.8008 212.319 57.91 212.513 58.1043C212.707 58.2986 212.817 58.5622 212.817 58.837V60.4742C212.817 60.7491 212.707 61.0126 212.513 61.207C212.319 61.4013 212.055 61.5105 211.78 61.5105Z" fill="#183154"/>
<path d="M211.78 54.4322C211.506 54.4322 211.242 54.323 211.048 54.1287C210.853 53.9344 210.744 53.6708 210.744 53.396V44.671C210.744 44.3962 210.853 44.1326 211.048 43.9383C211.242 43.7439 211.506 43.6348 211.78 43.6348C212.055 43.6348 212.319 43.7439 212.513 43.9383C212.707 44.1326 212.817 44.3962 212.817 44.671V53.396C212.817 53.6708 212.707 53.9344 212.513 54.1287C212.319 54.323 212.055 54.4322 211.78 54.4322Z" fill="#183154"/>
<path d="M211.781 37.6251C211.506 37.6251 211.242 37.5159 211.048 37.3216C210.854 37.1273 210.745 36.8637 210.745 36.5889V13.4397C210.745 11.4692 209.962 9.5794 208.568 8.18606C207.175 6.79272 205.285 6.00995 203.315 6.00995H129.816C129.541 6.00995 129.277 5.90077 129.083 5.70644C128.888 5.51211 128.779 5.24855 128.779 4.97372C128.779 4.6989 128.888 4.43533 129.083 4.241C129.277 4.04667 129.541 3.9375 129.816 3.9375H203.315C205.834 3.94024 208.249 4.94224 210.031 6.72365C211.812 8.50506 212.814 10.9204 212.817 13.4397V36.5889C212.817 36.8637 212.708 37.1273 212.513 37.3216C212.319 37.5159 212.056 37.6251 211.781 37.6251Z" fill="#183154"/>
<path d="M123.908 6.00995H122.654C122.38 6.00995 122.116 5.90077 121.922 5.70644C121.727 5.51211 121.618 5.24855 121.618 4.97372C121.618 4.6989 121.727 4.43533 121.922 4.241C122.116 4.04667 122.38 3.9375 122.654 3.9375H123.908C124.183 3.9375 124.447 4.04667 124.641 4.241C124.835 4.43533 124.944 4.6989 124.944 4.97372C124.944 5.24855 124.835 5.51211 124.641 5.70644C124.447 5.90077 124.183 6.00995 123.908 6.00995Z" fill="#183154"/>
<path d="M75.1958 14.6201C76.4091 14.6201 77.3926 13.6366 77.3926 12.4234C77.3926 11.2101 76.4091 10.2266 75.1958 10.2266C73.9826 10.2266 72.999 11.2101 72.999 12.4234C72.999 13.6366 73.9826 14.6201 75.1958 14.6201Z" fill="#8BBBC6"/>
<path d="M81.5171 14.6201C82.7304 14.6201 83.7139 13.6366 83.7139 12.4234C83.7139 11.2101 82.7304 10.2266 81.5171 10.2266C80.3038 10.2266 79.3203 11.2101 79.3203 12.4234C79.3203 13.6366 80.3038 14.6201 81.5171 14.6201Z" fill="#8BBBC6"/>
<path d="M88.1284 14.6201C89.3417 14.6201 90.3252 13.6366 90.3252 12.4234C90.3252 11.2101 89.3417 10.2266 88.1284 10.2266C86.9152 10.2266 85.9316 11.2101 85.9316 12.4234C85.9316 13.6366 86.9152 14.6201 88.1284 14.6201Z" fill="#8BBBC6"/>
<path d="M75.3409 15.1281C74.8043 15.128 74.2799 14.9691 73.8336 14.6712C73.3874 14.3734 73.0394 13.95 72.8336 13.4545C72.6278 12.959 72.5735 12.4137 72.6774 11.8873C72.7813 11.3609 73.0389 10.8772 73.4175 10.4971C73.7962 10.117 74.2789 9.8576 74.8049 9.75168C75.3308 9.64576 75.8764 9.69804 76.3727 9.90194C76.8689 10.1058 77.2936 10.4522 77.5932 10.8973C77.8928 11.3424 78.0537 11.8663 78.0558 12.4028C78.0571 12.7602 77.9879 13.1143 77.8521 13.4449C77.7163 13.7755 77.5165 14.076 77.2643 14.3292C77.012 14.5824 76.7123 14.7833 76.3822 14.9204C76.0522 15.0575 75.6983 15.1281 75.3409 15.1281ZM75.3409 10.7448C75.008 10.7449 74.6826 10.8439 74.4061 11.0292C74.1296 11.2146 73.9145 11.478 73.7881 11.786C73.6617 12.0939 73.6296 12.4325 73.6961 12.7587C73.7626 13.0849 73.9245 13.3839 74.1614 13.6179C74.3982 13.8518 74.6993 14.01 75.0263 14.0724C75.3532 14.1348 75.6914 14.0986 75.9978 13.9684C76.3041 13.8381 76.5648 13.6198 76.7468 13.341C76.9287 13.0622 77.0237 12.7356 77.0195 12.4028C77.0114 11.962 76.8313 11.5419 76.5177 11.2321C76.204 10.9223 75.7817 10.7475 75.3409 10.7448Z" fill="#183154"/>
<path d="M81.6622 15.1281C81.1256 15.128 80.6011 14.9691 80.1549 14.6712C79.7087 14.3734 79.3607 13.95 79.1549 13.4545C78.9491 12.959 78.8948 12.4137 78.9987 11.8873C79.1026 11.3609 79.3601 10.8772 79.7388 10.4971C80.1174 10.117 80.6002 9.8576 81.1262 9.75168C81.6521 9.64576 82.1977 9.69804 82.6939 9.90194C83.1902 10.1058 83.6149 10.4522 83.9145 10.8973C84.214 11.3424 84.375 11.8663 84.377 12.4028C84.3784 12.7602 84.3092 13.1143 84.1734 13.4449C84.0375 13.7755 83.8378 14.076 83.5855 14.3292C83.3333 14.5824 83.0336 14.7833 82.7035 14.9204C82.3734 15.0575 82.0196 15.1281 81.6622 15.1281ZM81.6622 10.7448C81.3293 10.7449 81.0039 10.8439 80.7274 11.0292C80.4509 11.2146 80.2358 11.478 80.1094 11.786C79.9829 12.0939 79.9509 12.4325 80.0174 12.7587C80.0839 13.0849 80.2458 13.3839 80.4827 13.6179C80.7195 13.8518 81.0206 14.01 81.3475 14.0724C81.6745 14.1348 82.0127 14.0986 82.319 13.9684C82.6254 13.8381 82.8861 13.6198 83.068 13.341C83.25 13.0622 83.3449 12.7356 83.3408 12.4028C83.3327 11.962 83.1526 11.5419 82.839 11.2321C82.5253 10.9223 82.103 10.7475 81.6622 10.7448Z" fill="#183154"/>
<path d="M88.2735 15.1281C87.737 15.128 87.2125 14.9691 86.7662 14.6712C86.32 14.3734 85.972 13.95 85.7662 13.4545C85.5605 12.959 85.5061 12.4137 85.61 11.8873C85.7139 11.3609 85.9715 10.8772 86.3501 10.4971C86.7288 10.117 87.2115 9.8576 87.7375 9.75168C88.2635 9.64576 88.809 9.69804 89.3053 9.90194C89.8015 10.1058 90.2263 10.4522 90.5258 10.8973C90.8254 11.3424 90.9863 11.8663 90.9884 12.4028C90.9911 12.7606 90.9229 13.1153 90.7875 13.4465C90.6522 13.7777 90.4525 14.0788 90.2 14.3323C89.9474 14.5858 89.6472 14.7866 89.3165 14.9232C88.9858 15.0598 88.6313 15.1294 88.2735 15.1281ZM88.2735 10.7448C87.9406 10.7449 87.6152 10.8439 87.3387 11.0292C87.0622 11.2146 86.8471 11.478 86.7207 11.786C86.5943 12.0939 86.5623 12.4325 86.6287 12.7587C86.6952 13.0849 86.8572 13.3839 87.094 13.6179C87.3308 13.8518 87.6319 14.01 87.9589 14.0724C88.2859 14.1348 88.624 14.0986 88.9304 13.9684C89.2367 13.8381 89.4974 13.6198 89.6794 13.341C89.8613 13.0622 89.9563 12.7356 89.9522 12.4028C89.9467 11.9612 89.7674 11.5395 89.4532 11.2292C89.139 10.9188 88.7151 10.7448 88.2735 10.7448Z" fill="#183154"/>
<path d="M188.155 42.8578H125.35C124.8 42.8578 124.273 42.6394 123.884 42.2508C123.496 41.8621 123.277 41.335 123.277 40.7853C123.277 40.2357 123.496 39.7086 123.884 39.3199C124.273 38.9312 124.8 38.7129 125.35 38.7129H188.155C188.705 38.7129 189.232 38.9312 189.621 39.3199C190.009 39.7086 190.228 40.2357 190.228 40.7853C190.228 41.335 190.009 41.8621 189.621 42.2508C189.232 42.6394 188.705 42.8578 188.155 42.8578Z" fill="#8BBBC6"/>
<path d="M146.706 52.7015H125.35C124.8 52.7015 124.273 52.4832 123.884 52.0945C123.496 51.7059 123.277 51.1787 123.277 50.6291C123.277 50.0794 123.496 49.5523 123.884 49.1636C124.273 48.775 124.8 48.5566 125.35 48.5566H146.706C147.256 48.5566 147.783 48.775 148.172 49.1636C148.56 49.5523 148.779 50.0794 148.779 50.6291C148.779 51.1787 148.56 51.7059 148.172 52.0945C147.783 52.4832 147.256 52.7015 146.706 52.7015Z" fill="#8BBBC6"/>
<path d="M146.706 75.1058H125.35C124.8 75.1058 124.273 74.8875 123.884 74.4988C123.496 74.1102 123.277 73.583 123.277 73.0334C123.277 72.4837 123.496 71.9566 123.884 71.5679C124.273 71.1793 124.8 70.9609 125.35 70.9609H146.706C147.256 70.9609 147.783 71.1793 148.172 71.5679C148.56 71.9566 148.779 72.4837 148.779 73.0334C148.779 73.583 148.56 74.1102 148.172 74.4988C147.783 74.8875 147.256 75.1058 146.706 75.1058Z" fill="#389D9C"/>
<path d="M175.243 62.5453H163.202C162.653 62.5453 162.126 62.3269 161.737 61.9383C161.348 61.5496 161.13 61.0225 161.13 60.4728C161.13 59.9232 161.348 59.3961 161.737 59.0074C162.126 58.6187 162.653 58.4004 163.202 58.4004H175.243C175.793 58.4004 176.32 58.6187 176.709 59.0074C177.097 59.3961 177.316 59.9232 177.316 60.4728C177.316 61.0225 177.097 61.5496 176.709 61.9383C176.32 62.3269 175.793 62.5453 175.243 62.5453Z" fill="#8BBBC6"/>
<path opacity="0.8" d="M194.176 62.5453H182.135C181.585 62.5453 181.058 62.3269 180.67 61.9383C180.281 61.5496 180.062 61.0225 180.062 60.4728C180.062 59.9232 180.281 59.3961 180.67 59.0074C181.058 58.6187 181.585 58.4004 182.135 58.4004H194.176C194.725 58.4004 195.253 58.6187 195.641 59.0074C196.03 59.3961 196.248 59.9232 196.248 60.4728C196.248 61.0225 196.03 61.5496 195.641 61.9383C195.253 62.3269 194.725 62.5453 194.176 62.5453Z" fill="#8BBBC6"/>
<path d="M137.38 62.5453H125.35C124.8 62.5453 124.273 62.3269 123.884 61.9383C123.496 61.5496 123.277 61.0225 123.277 60.4728C123.277 59.9232 123.496 59.3961 123.884 59.0074C124.273 58.6187 124.8 58.4004 125.35 58.4004H137.38C137.93 58.4004 138.457 58.6187 138.846 59.0074C139.234 59.3961 139.453 59.9232 139.453 60.4728C139.453 61.0225 139.234 61.5496 138.846 61.9383C138.457 62.3269 137.93 62.5453 137.38 62.5453Z" fill="#8BBBC6"/>
<path opacity="0.3" d="M156.312 62.5453H144.281C143.732 62.5453 143.205 62.3269 142.816 61.9383C142.427 61.5496 142.209 61.0225 142.209 60.4728C142.209 59.9232 142.427 59.3961 142.816 59.0074C143.205 58.6187 143.732 58.4004 144.281 58.4004H156.312C156.862 58.4004 157.389 58.6187 157.777 59.0074C158.166 59.3961 158.384 59.9232 158.384 60.4728C158.384 61.0225 158.166 61.5496 157.777 61.9383C157.389 62.3269 156.862 62.5453 156.312 62.5453Z" fill="#8BBBC6"/>
<path d="M188.155 86.0785H125.35C124.8 86.0785 124.273 85.8601 123.884 85.4715C123.496 85.0828 123.277 84.5557 123.277 84.006C123.277 83.4564 123.496 82.9293 123.884 82.5406C124.273 82.1519 124.8 81.9336 125.35 81.9336H188.155C188.705 81.9336 189.232 82.1519 189.621 82.5406C190.009 82.9293 190.228 83.4564 190.228 84.006C190.228 84.5557 190.009 85.0828 189.621 85.4715C189.232 85.8601 188.705 86.0785 188.155 86.0785Z" fill="#8BBBC6"/>
<path d="M146.706 95.9222H125.35C124.8 95.9222 124.273 95.7039 123.884 95.3152C123.496 94.9266 123.277 94.3994 123.277 93.8498C123.277 93.3001 123.496 92.773 123.884 92.3843C124.273 91.9957 124.8 91.7773 125.35 91.7773H146.706C147.256 91.7773 147.783 91.9957 148.172 92.3843C148.56 92.773 148.779 93.3001 148.779 93.8498C148.779 94.3994 148.56 94.9266 148.172 95.3152C147.783 95.7039 147.256 95.9222 146.706 95.9222Z" fill="#8BBBC6"/>
<path d="M146.706 118.326H125.35C124.8 118.326 124.273 118.107 123.884 117.719C123.496 117.33 123.277 116.803 123.277 116.253C123.277 115.703 123.496 115.176 123.884 114.788C124.273 114.399 124.8 114.181 125.35 114.181H146.706C147.256 114.181 147.783 114.399 148.172 114.788C148.56 115.176 148.779 115.703 148.779 116.253C148.779 116.803 148.56 117.33 148.172 117.719C147.783 118.107 147.256 118.326 146.706 118.326Z" fill="#389D9C"/>
<path d="M175.243 105.767H163.202C162.653 105.767 162.126 105.549 161.737 105.16C161.348 104.771 161.13 104.244 161.13 103.695C161.13 103.145 161.348 102.618 161.737 102.229C162.126 101.84 162.653 101.622 163.202 101.622H175.243C175.793 101.622 176.32 101.84 176.709 102.229C177.097 102.618 177.316 103.145 177.316 103.695C177.316 104.244 177.097 104.771 176.709 105.16C176.32 105.549 175.793 105.767 175.243 105.767Z" fill="#8BBBC6"/>
<path opacity="0.8" d="M194.176 105.767H182.135C181.585 105.767 181.058 105.549 180.67 105.16C180.281 104.771 180.062 104.244 180.062 103.695C180.062 103.145 180.281 102.618 180.67 102.229C181.058 101.84 181.585 101.622 182.135 101.622H194.176C194.725 101.622 195.253 101.84 195.641 102.229C196.03 102.618 196.248 103.145 196.248 103.695C196.248 104.244 196.03 104.771 195.641 105.16C195.253 105.549 194.725 105.767 194.176 105.767Z" fill="#8BBBC6"/>
<path d="M137.38 105.767H125.35C124.8 105.767 124.273 105.549 123.884 105.16C123.496 104.771 123.277 104.244 123.277 103.695C123.277 103.145 123.496 102.618 123.884 102.229C124.273 101.84 124.8 101.622 125.35 101.622H137.38C137.93 101.622 138.457 101.84 138.846 102.229C139.234 102.618 139.453 103.145 139.453 103.695C139.453 104.244 139.234 104.771 138.846 105.16C138.457 105.549 137.93 105.767 137.38 105.767Z" fill="#8BBBC6"/>
<path opacity="0.3" d="M156.312 105.767H144.281C143.732 105.767 143.205 105.549 142.816 105.16C142.427 104.771 142.209 104.244 142.209 103.695C142.209 103.145 142.427 102.618 142.816 102.229C143.205 101.84 143.732 101.622 144.281 101.622H156.312C156.862 101.622 157.389 101.84 157.777 102.229C158.166 102.618 158.384 103.145 158.384 103.695C158.384 104.244 158.166 104.771 157.777 105.16C157.389 105.549 156.862 105.767 156.312 105.767Z" fill="#8BBBC6"/>
<path d="M77.4759 36.9194C77.4759 41.6626 76.5415 46.3594 74.726 50.7414C72.9105 55.1235 70.2496 59.1049 66.8951 62.4584C63.5407 65.8119 59.5585 68.4717 55.1759 70.2859C50.7934 72.1001 46.0964 73.0332 41.3532 73.0318C40.8247 73.0318 40.3169 73.0318 39.7677 73.0318H39.4569C32.1515 72.6655 25.133 70.0729 19.3438 65.6021L19.0536 65.3845C18.5148 64.9596 18.0174 64.514 17.4786 64.0685C10.6811 58.1186 6.3597 49.8377 5.36653 40.8589C4.37336 31.88 6.78051 22.8549 12.1133 15.5633C17.4461 8.27163 25.3174 3.24279 34.1751 1.46841C43.0328 -0.305961 52.2338 1.30293 59.9637 5.97782C60.8963 6.53738 61.7978 7.13839 62.6683 7.77048L62.803 7.86374C66.1335 10.3249 69.0209 13.3349 71.3414 16.7649C73.8255 20.4361 75.6069 24.5365 76.5951 28.8576C76.6987 29.3032 76.792 29.7591 76.8749 30.2151C77.2833 32.4263 77.4845 34.6708 77.4759 36.9194Z" fill="#A8FF8C"/>
<path d="M77.8384 37.439C77.8329 47.0157 74.0247 56.1983 67.251 62.9682C60.4773 69.738 51.2925 73.541 41.7157 73.541C41.4152 73.541 41.1043 73.541 40.8038 73.541C40.7002 73.541 40.5966 73.541 40.493 73.541C33.2395 73.3116 26.2263 70.8872 20.3799 66.5879L20.0897 66.3703C19.6027 66.0076 19.1157 65.6346 18.6494 65.2408C15.6855 62.7755 13.1322 59.855 11.085 56.5884C11.2715 56.7127 11.4684 56.8267 11.6652 56.9407C12.7745 57.6198 13.9233 58.2323 15.1055 58.7748C19.8328 60.9547 24.9769 62.0825 30.1825 62.0803C33.659 62.083 37.1176 61.5839 40.4515 60.5985L40.7624 60.5053C47.3045 58.5076 53.1454 54.6944 57.6064 49.5089C62.0674 44.3233 64.9653 37.9784 65.9633 31.2113C66.0359 30.7553 66.0877 30.3097 66.1395 29.8538C66.2768 28.5596 66.346 27.2591 66.3467 25.9576C66.3477 23.6976 66.1361 21.4425 65.7146 19.2222C65.2536 16.7632 64.5347 14.3597 63.5696 12.0515C63.1035 10.9259 62.5777 9.82597 61.9946 8.75631C61.663 8.14494 61.321 7.54393 60.9584 6.96365L60.8547 6.79785C61.8246 7.40078 62.762 8.05451 63.6629 8.75631L63.7873 8.84957C66.7945 11.1871 69.4139 13.9848 71.5486 17.1394C74.1915 20.995 76.0505 25.3327 77.0198 29.9056C77.1234 30.3512 77.2167 30.8071 77.2892 31.2631C77.6483 33.3022 77.832 35.3684 77.8384 37.439Z" fill="#389D9C"/>
<path d="M41.3648 49.5929C40.5708 49.5939 39.8026 49.3109 39.1991 48.795L30.7642 41.5414C30.4088 41.2924 30.1095 40.9717 29.8855 40.6C29.6615 40.2283 29.5178 39.8138 29.4637 39.3832C29.4096 38.9526 29.4462 38.5155 29.5713 38.0999C29.6963 37.6843 29.907 37.2995 30.1897 36.9703C30.4724 36.6411 30.8209 36.3747 31.2128 36.1883C31.6047 36.0018 32.0313 35.8996 32.4651 35.888C32.899 35.8764 33.3304 35.9558 33.7317 36.121C34.133 36.2862 34.4952 36.5336 34.7951 36.8473L40.7741 41.9766L49.3022 29.4591C49.5315 29.1189 49.8256 28.8272 50.1676 28.6006C50.5096 28.374 50.8929 28.2171 51.2956 28.1387C51.6983 28.0602 52.1125 28.0619 52.5146 28.1436C52.9166 28.2252 53.2986 28.3852 53.6388 28.6145C53.979 28.8438 54.2707 29.1379 54.4973 29.4799C54.7238 29.8219 54.8808 30.2052 54.9592 30.6079C55.0377 31.0106 55.036 31.4248 54.9543 31.8269C54.8727 32.2289 54.7126 32.6109 54.4834 32.9511L44.1211 48.1422C43.8558 48.5296 43.5121 48.857 43.1122 49.1034C42.7124 49.3497 42.2654 49.5094 41.8 49.5721C41.6556 49.5892 41.5101 49.5961 41.3648 49.5929Z" fill="white"/>
<g opacity="0.15">
<path d="M27.4898 23.1573C31.1296 23.1573 34.0802 20.2067 34.0802 16.5669C34.0802 12.9272 31.1296 9.97656 27.4898 9.97656C23.85 9.97656 20.8994 12.9272 20.8994 16.5669C20.8994 20.2067 23.85 23.1573 27.4898 23.1573Z" fill="white"/>
<path d="M19.8948 29.5923C21.7147 29.5923 23.19 28.117 23.19 26.2971C23.19 24.4773 21.7147 23.002 19.8948 23.002C18.0749 23.002 16.5996 24.4773 16.5996 26.2971C16.5996 28.117 18.0749 29.5923 19.8948 29.5923Z" fill="white"/>
</g>
<path d="M5.59324 43.2926C5.34179 43.295 5.09803 43.206 4.90738 43.042C4.71673 42.8781 4.59221 42.6504 4.55701 42.4014C4.31694 40.6535 4.19577 38.8913 4.19434 37.127C4.19434 36.8522 4.30351 36.5887 4.49784 36.3943C4.69217 36.2 4.95574 36.0908 5.23056 36.0908C5.50538 36.0908 5.76895 36.2 5.96328 36.3943C6.15761 36.5887 6.26678 36.8522 6.26678 37.127C6.26649 38.7943 6.38074 40.4597 6.60874 42.1113C6.64831 42.3757 6.58415 42.6452 6.42966 42.8634C6.27517 43.0816 6.04231 43.2317 5.77976 43.2822L5.59324 43.2926Z" fill="#183154"/>
<path d="M7.53195 50.8778C7.32199 50.8764 7.11742 50.8112 6.94533 50.6909C6.77323 50.5707 6.64174 50.4009 6.56826 50.2043C6.10222 48.9617 5.70101 47.6958 5.36624 46.4117C5.33198 46.2797 5.32411 46.1422 5.34309 46.0072C5.36207 45.8721 5.40751 45.7421 5.47683 45.6247C5.54614 45.5072 5.63796 45.4046 5.74701 45.3227C5.85606 45.2409 5.9802 45.1813 6.11232 45.1475C6.24432 45.1132 6.38179 45.1054 6.51684 45.1243C6.65188 45.1433 6.78186 45.1888 6.89931 45.2581C7.01675 45.3274 7.11936 45.4192 7.20125 45.5283C7.28314 45.6373 7.3427 45.7615 7.37651 45.8936C7.69175 47.1071 8.06873 48.3038 8.50599 49.4789C8.60039 49.7346 8.59024 50.0172 8.47775 50.2655C8.36525 50.5137 8.15947 50.7077 7.90499 50.8053C7.78677 50.8542 7.6599 50.8789 7.53195 50.8778Z" fill="#183154"/>
<path d="M17.0534 34.8684C17.4656 34.8684 17.8609 34.7047 18.1524 34.4132C18.4439 34.1217 18.6077 33.7263 18.6077 33.3141C18.6077 32.9019 18.4439 32.5065 18.1524 32.215C17.8609 31.9235 17.4656 31.7598 17.0534 31.7598C16.6411 31.7598 16.2458 31.9235 15.9543 32.215C15.6628 32.5065 15.499 32.9019 15.499 33.3141C15.499 33.7263 15.6628 34.1217 15.9543 34.4132C16.2458 34.7047 16.6411 34.8684 17.0534 34.8684Z" fill="#FDFEFF"/>
<path d="M20.0488 46.0384C19.137 43.8102 18.5979 41.4471 18.453 39.0439C18.3494 37.5517 16.0179 37.5414 16.1215 39.0439C16.3047 41.8563 16.9525 44.619 18.0385 47.2197C18.6188 48.5979 20.6291 47.4062 20.0488 46.0384Z" fill="#FDFEFF"/>
<path d="M211.781 19.7394H73.1964C72.9216 19.7394 72.658 19.6303 72.4637 19.4359C72.2693 19.2416 72.1602 18.978 72.1602 18.7032C72.1602 18.4284 72.2693 18.1648 72.4637 17.9705C72.658 17.7762 72.9216 17.667 73.1964 17.667H211.781C212.056 17.667 212.319 17.7762 212.514 17.9705C212.708 18.1648 212.817 18.4284 212.817 18.7032C212.817 18.978 212.708 19.2416 212.514 19.4359C212.319 19.6303 212.056 19.7394 211.781 19.7394Z" fill="#183154"/>
<path d="M105.837 118.854H77.1852H49.1035L72.1698 78.8867L86.2003 103.197L91.5058 94.0156L105.837 118.854ZM80.729 116.781H102.251L91.5058 98.1294L86.2003 107.31L72.1698 83.0316L52.6888 116.761H80.7394L80.729 116.781Z" fill="#183154"/>
<path d="M41.3539 74.2758C40.8047 74.2758 40.2451 74.2758 39.7063 74.2758H39.354C31.8532 73.898 24.6488 71.2289 18.7124 66.6285L18.4534 66.442C17.8524 65.9757 17.3239 65.5197 16.7954 65.0638C14.0475 62.6427 11.673 59.8282 9.7491 56.7118C9.09345 55.6461 8.49504 54.5461 7.95643 53.4166C7.88437 53.2937 7.83842 53.1573 7.82147 53.0158C7.80452 52.8743 7.81692 52.7309 7.85791 52.5944C7.8989 52.458 7.96758 52.3315 8.05968 52.2227C8.15178 52.114 8.2653 52.0255 8.39316 51.9626C8.52103 51.8997 8.66048 51.8639 8.80281 51.8574C8.94514 51.8509 9.08729 51.8738 9.22037 51.9246C9.35346 51.9755 9.47462 52.0533 9.57629 52.1531C9.67796 52.2529 9.75795 52.3726 9.81127 52.5048C10.3294 53.541 10.8475 54.5772 11.5107 55.5616C13.3398 58.5097 15.5996 61.1677 18.215 63.4473C18.7124 63.8721 19.2513 64.3074 19.7383 64.7322L20.0284 64.9394C25.6443 69.298 32.4617 71.8297 39.5612 72.193H39.8203H41.4057C50.6961 72.1711 59.5993 68.4686 66.1657 61.8964C72.7322 55.3241 76.4267 46.4177 76.4404 37.1272C76.4414 34.9295 76.2332 32.7366 75.8186 30.5783C75.7358 30.1327 75.6529 29.6871 75.5492 29.2623C74.6027 25.0913 72.8917 21.1318 70.5028 17.5841L70.4407 17.4908C68.2057 14.1781 65.4235 11.2697 62.2131 8.89015L62.0576 8.78653C61.1457 8.09572 60.2546 7.50507 59.3842 7.01459C54.4791 4.07685 48.9304 2.38232 43.221 2.07846C37.5115 1.7746 31.8143 2.87061 26.6252 5.27111C21.436 7.67162 16.912 11.3039 13.447 15.8518C9.98205 20.3998 7.68097 25.7256 6.74405 31.3658C6.65845 31.5859 6.50028 31.7701 6.29572 31.8879C6.09115 32.0058 5.85247 32.0503 5.61917 32.0141C5.38588 31.9778 5.17196 31.8629 5.01283 31.6885C4.85371 31.5141 4.75891 31.2906 4.74414 31.055C5.74064 25.0884 8.17792 19.4551 11.8445 14.6439C15.5111 9.83257 20.2963 5.98858 25.7849 3.44541C31.2735 0.902232 37.2998 -0.263321 43.3408 0.0498699C49.3819 0.363061 55.2553 2.14554 60.4515 5.24265C61.3737 5.80221 62.3167 6.42394 63.2285 7.08713L63.3736 7.19075C66.7735 9.69411 69.7238 12.7565 72.0986 16.2473L72.1712 16.351C74.7341 20.1221 76.5687 24.3396 77.5802 28.7856C77.6839 29.2416 77.7875 29.7079 77.8704 30.1845C78.301 32.4703 78.5195 34.7909 78.5232 37.1169C78.5122 46.9705 74.5923 56.4172 67.6238 63.3837C60.6553 70.3503 51.2075 74.2676 41.3539 74.2758Z" fill="#183154"/>
<g opacity="0.4">
<path d="M36.774 25.2931C40.4137 25.2931 43.3643 22.3424 43.3643 18.7027C43.3643 15.0629 40.4137 12.1123 36.774 12.1123C33.1342 12.1123 30.1836 15.0629 30.1836 18.7027C30.1836 22.3424 33.1342 25.2931 36.774 25.2931Z" fill="white"/>
<path d="M29.178 31.729C30.9979 31.729 32.4732 30.2537 32.4732 28.4339C32.4732 26.614 30.9979 25.1387 29.178 25.1387C27.3581 25.1387 25.8828 26.614 25.8828 28.4339C25.8828 30.2537 27.3581 31.729 29.178 31.729Z" fill="white"/>
</g>
<path d="M84.6766 84.0066C88.2821 84.0066 91.2049 81.0838 91.2049 77.4784C91.2049 73.873 88.2821 70.9502 84.6766 70.9502C81.0712 70.9502 78.1484 73.873 78.1484 77.4784C78.1484 81.0838 81.0712 84.0066 84.6766 84.0066Z" fill="#A8FF8C"/>
<path d="M85.041 85.0429C83.5449 85.0429 82.0824 84.5993 80.8384 83.7681C79.5945 82.9369 78.6249 81.7555 78.0524 80.3733C77.4798 78.9911 77.33 77.4701 77.6219 76.0027C77.9138 74.5354 78.6342 73.1875 79.6921 72.1296C80.75 71.0717 82.0979 70.3513 83.5652 70.0594C85.0326 69.7675 86.5536 69.9173 87.9358 70.4899C89.318 71.0624 90.4994 72.032 91.3306 73.2759C92.1618 74.5199 92.6054 75.9824 92.6054 77.4785C92.6027 79.4839 91.8048 81.4063 90.3868 82.8243C88.9688 84.2423 87.0464 85.0402 85.041 85.0429ZM85.041 71.9969C83.9543 71.9969 82.8921 72.3192 81.9887 72.9232C81.0854 73.5271 80.3814 74.3854 79.9661 75.3896C79.5507 76.3937 79.4426 77.4985 79.6553 78.5641C79.8681 79.6297 80.3922 80.6083 81.1613 81.3759C81.9304 82.1436 82.9099 82.6658 83.9759 82.8766C85.0419 83.0873 86.1465 82.9771 87.1499 82.5598C88.1532 82.1425 89.0102 81.437 89.6125 80.5325C90.2147 79.628 90.535 78.5651 90.533 77.4785C90.5302 76.0237 89.9504 74.6295 88.9208 73.6018C87.8911 72.5741 86.4958 71.9969 85.041 71.9969Z" fill="#183154"/>
</svg>
