<svg width="205" height="200" viewBox="0 0 205 200" fill="none" xmlns="http://www.w3.org/2000/svg">
<path opacity="0.15" d="M124.31 25.3804L25.8329 123.858C11.8155 137.875 11.8155 160.602 25.8329 174.619C39.8502 188.636 62.5769 188.636 76.5943 174.619L175.071 76.1418C189.089 62.1245 189.089 39.3978 175.071 25.3804C161.054 11.363 138.327 11.363 124.31 25.3804Z" fill="#F7AFA3"/>
<path d="M179.335 74.6602V137.718C179.335 140.199 178.35 142.577 176.598 144.333C174.846 146.088 172.468 147.076 169.988 147.079L55.6161 147.151C54.3831 147.151 53.1623 146.908 52.0238 146.435C50.8852 145.961 49.8513 145.268 48.9815 144.394C48.1117 143.52 47.423 142.483 46.9552 141.343C46.4873 140.202 46.2493 138.98 46.255 137.747L46.5134 75.1771C46.5247 72.7117 47.5081 70.3504 49.25 68.6058C50.9919 66.8612 53.3518 65.8741 55.8171 65.859L169.916 65.256C171.154 65.2484 172.381 65.4864 173.526 65.9561C174.671 66.4258 175.712 67.118 176.588 67.9926C177.464 68.8672 178.158 69.9068 178.629 71.0513C179.101 72.1958 179.34 73.4224 179.335 74.6602Z" fill="white"/>
<g opacity="0.3">
<path opacity="0.3" d="M99.999 106.327L122.808 82.3087L125.931 85.2747L103.122 109.293L99.999 106.327Z" fill="#F5A8A0"/>
<path opacity="0.3" d="M109.589 106.371L124.002 90.7573L127.167 93.6789L112.754 109.293L109.589 106.371Z" fill="#F5A8A0"/>
</g>
<path d="M46.7715 140.201H177.281C177.281 142.364 176.422 144.439 174.893 145.968C173.363 147.497 171.289 148.356 169.126 148.356H54.9265C52.7637 148.356 50.6894 147.497 49.16 145.968C47.6307 144.439 46.7715 142.364 46.7715 140.201Z" fill="#E2E9F1"/>
<path d="M126.298 59.0257C124.456 59.0257 122.654 58.4792 121.122 57.4553C119.589 56.4314 118.395 54.9762 117.69 53.2735C116.985 51.5709 116.8 49.6973 117.16 47.8898C117.519 46.0823 118.407 44.422 119.71 43.1188C121.013 41.8157 122.673 40.9282 124.481 40.5687C126.288 40.2092 128.162 40.3937 129.864 41.0989C131.567 41.8042 133.022 42.9985 134.046 44.5309C135.07 46.0632 135.617 47.8647 135.617 49.7077C135.613 52.1778 134.63 54.5457 132.883 56.2923C131.136 58.039 128.769 59.0219 126.298 59.0257ZM126.298 44.6682C125.307 44.6682 124.339 44.9621 123.515 45.5127C122.691 46.0632 122.048 46.8458 121.669 47.7614C121.29 48.677 121.191 49.6845 121.384 50.6565C121.577 51.6285 122.055 52.5213 122.755 53.2221C123.456 53.9229 124.349 54.4001 125.321 54.5934C126.293 54.7868 127.3 54.6876 128.216 54.3083C129.132 53.929 129.914 53.2868 130.465 52.4628C131.015 51.6388 131.309 50.67 131.309 49.679C131.302 48.3537 130.771 47.085 129.832 46.1493C128.894 45.2135 127.624 44.6863 126.298 44.6825V44.6682Z" fill="#F5A8A0"/>
<path d="M110.949 57.9766C112.638 57.9766 114.007 56.6075 114.007 54.9185C114.007 53.2295 112.638 51.8604 110.949 51.8604C109.26 51.8604 107.891 53.2295 107.891 54.9185C107.891 56.6075 109.26 57.9766 110.949 57.9766Z" fill="#F5A8A0"/>
<path d="M60.9419 158.019C62.6309 158.019 64.0001 156.649 64.0001 154.96C64.0001 153.272 62.6309 151.902 60.9419 151.902C59.253 151.902 57.8838 153.272 57.8838 154.96C57.8838 156.649 59.253 158.019 60.9419 158.019Z" fill="#D5DFEB"/>
<path d="M75.6299 167.481C74.105 167.481 72.6144 167.028 71.3465 166.181C70.0786 165.334 69.0904 164.13 68.5068 162.721C67.9233 161.312 67.7706 159.762 68.0681 158.266C68.3656 156.771 69.0999 155.397 70.1781 154.319C71.2564 153.24 72.6302 152.506 74.1258 152.209C75.6213 151.911 77.1716 152.064 78.5804 152.647C79.9892 153.231 81.1933 154.219 82.0405 155.487C82.8877 156.755 83.3399 158.246 83.3399 159.771C83.3361 161.814 82.5226 163.773 81.0775 165.218C79.6324 166.663 77.6735 167.477 75.6299 167.481ZM75.6299 156.368C74.9569 156.368 74.299 156.567 73.7394 156.941C73.1799 157.315 72.7437 157.847 72.4862 158.468C72.2286 159.09 72.1613 159.774 72.2926 160.434C72.4238 161.094 72.7479 161.701 73.2238 162.177C73.6997 162.652 74.306 162.977 74.9661 163.108C75.6261 163.239 76.3103 163.172 76.9321 162.914C77.5538 162.657 78.0853 162.221 78.4592 161.661C78.8331 161.101 79.0326 160.444 79.0326 159.771C79.0326 158.868 78.6741 158.003 78.036 157.364C77.3979 156.726 76.5324 156.368 75.6299 156.368Z" fill="#3E6177"/>
<path d="M54.0946 149.306C52.5802 149.306 51.0807 149.006 49.6825 148.425C48.2842 147.843 47.0148 146.99 45.9473 145.916C44.8798 144.842 44.0352 143.567 43.4623 142.165C42.8893 140.764 42.5992 139.262 42.6086 137.748L42.9245 75.1779C42.9245 72.1316 44.1346 69.2101 46.2887 67.0561C48.4427 64.902 51.3642 63.6919 54.4105 63.6919L168.51 63.0889C171.556 63.0889 174.477 64.299 176.631 66.453C178.785 68.6071 179.996 71.5286 179.996 74.5749V137.719C179.996 140.765 178.785 143.687 176.631 145.841C174.477 147.995 171.556 149.205 168.51 149.205L54.1233 149.277L54.0946 149.306ZM168.481 67.4679L54.3961 67.9991C52.4922 67.9991 50.6663 68.7555 49.32 70.1017C47.9737 71.448 47.2174 73.274 47.2174 75.1779L46.9159 137.762C46.9159 139.666 47.6722 141.492 49.0185 142.838C50.3648 144.185 52.1907 144.941 54.0946 144.941L168.481 144.869C170.385 144.869 172.211 144.113 173.557 142.767C174.903 141.42 175.66 139.594 175.66 137.69V74.661C175.66 72.7571 174.903 70.9311 173.557 69.5849C172.211 68.2386 170.385 67.4823 168.481 67.4823V67.4679Z" fill="#3E6177"/>
<path d="M111.351 123.476C109.305 123.481 107.278 123.079 105.388 122.296C103.498 121.512 101.782 120.361 100.339 118.91L62.8516 81.4371L65.8954 78.3933L103.383 115.866C105.496 117.979 108.363 119.166 111.351 119.166C114.34 119.166 117.206 117.979 119.32 115.866L156.807 78.3789L159.851 81.4227L122.363 118.91C120.921 120.361 119.205 121.512 117.315 122.296C115.424 123.079 113.397 123.481 111.351 123.476Z" fill="#3E6177"/>
<path d="M57.6973 131.33L85.4288 99.6972L88.6676 102.537L60.9361 134.169L57.6973 131.33Z" fill="#3E6177"/>
<path d="M134.036 102.519L137.275 99.6797L165.001 131.317L161.762 134.156L134.036 102.519Z" fill="#3E6177"/>
<path d="M165.927 70.7129H168.798V86.2764H165.927V70.7129Z" fill="white"/>
<path d="M165.927 88.5H168.798V95.1762H165.927V88.5Z" fill="white"/>
<path d="M165.927 97.3887H168.798V99.6141H165.927V97.3887Z" fill="white"/>
<path d="M167.979 77.875H170.85V96.0947H167.979V77.875Z" fill="white"/>
<path d="M167.979 98.6934H170.85V106.504H167.979V98.6934Z" fill="white"/>
<path d="M167.979 109.104H170.85V111.702H167.979V109.104Z" fill="white"/>
<path d="M166.974 112.678C187.725 112.678 204.548 95.8561 204.548 75.1048C204.548 54.3535 187.725 37.5312 166.974 37.5312C146.223 37.5312 129.4 54.3535 129.4 75.1048C129.4 95.8561 146.223 112.678 166.974 112.678Z" fill="white"/>
<path d="M168.279 105.588C185.113 105.588 198.76 91.9411 198.76 75.1069C198.76 58.2728 185.113 44.626 168.279 44.626C151.445 44.626 137.798 58.2728 137.798 75.1069C137.798 91.9411 151.445 105.588 168.279 105.588Z" fill="#F5A8A0"/>
<path d="M166.973 107.74C160.518 107.74 154.208 105.826 148.842 102.24C143.475 98.6541 139.292 93.5572 136.822 87.594C134.352 81.6308 133.706 75.0691 134.965 68.7386C136.224 62.4081 139.332 56.5932 143.896 52.0292C148.46 47.4651 154.275 44.357 160.606 43.0978C166.936 41.8386 173.498 42.4848 179.461 44.9549C185.424 47.4249 190.521 51.6078 194.107 56.9745C197.693 62.3412 199.607 68.6508 199.607 75.1053C199.596 83.757 196.154 92.0512 190.036 98.1689C183.918 104.287 175.624 107.729 166.973 107.74ZM166.973 46.7636C161.37 46.7636 155.893 48.425 151.235 51.5376C146.576 54.6503 142.945 59.0744 140.801 64.2506C138.657 69.4267 138.096 75.1224 139.189 80.6173C140.282 86.1123 142.98 91.1598 146.942 95.1214C150.904 99.0831 155.951 101.781 161.446 102.874C166.941 103.967 172.637 103.406 177.813 101.262C182.989 99.118 187.413 95.4872 190.526 90.8288C193.638 86.1704 195.3 80.6936 195.3 75.091C195.285 67.5841 192.295 60.3892 186.985 55.0824C181.676 49.7755 174.479 46.7893 166.973 46.778V46.7636Z" fill="#3E6177"/>
<path d="M164.217 88.716C163.651 88.7145 163.1 88.539 162.637 88.2135L151.625 80.5035C151.157 80.176 150.838 79.6759 150.738 79.1132C150.638 78.5504 150.766 77.9712 151.094 77.5028C151.421 77.0344 151.922 76.7153 152.484 76.6157C153.047 76.5161 153.626 76.6441 154.095 76.9716L163.886 83.7914L179.866 62.4849C180.04 62.2586 180.256 62.0687 180.503 61.9261C180.75 61.7834 181.022 61.6908 181.305 61.6535C181.588 61.6161 181.875 61.6348 182.15 61.7085C182.426 61.7822 182.684 61.9094 182.91 62.0828C183.136 62.2563 183.326 62.4726 183.469 62.7195C183.612 62.9663 183.704 63.2388 183.742 63.5215C183.779 63.8041 183.76 64.0913 183.687 64.3668C183.613 64.6422 183.486 64.9004 183.312 65.1266L166.428 87.5961C166.172 87.9424 165.839 88.2241 165.455 88.4186C165.071 88.613 164.647 88.7149 164.217 88.716Z" fill="white"/>
</svg>
