<svg width="123" height="123" viewBox="0 0 123 123" fill="none" xmlns="http://www.w3.org/2000/svg">
<path d="M62.151 120.95C94.8321 120.95 121.325 94.4571 121.325 61.776C121.325 29.0949 94.8321 2.60156 62.151 2.60156C29.4699 2.60156 2.97656 29.0949 2.97656 61.776C2.97656 94.4571 29.4699 120.95 62.151 120.95Z" fill="#FFC742"/>
<path opacity="0.4" d="M120.025 61.1252C120.017 69.5438 118.213 77.8639 114.733 85.5297C111.253 93.1955 106.177 100.031 99.8452 105.578C93.5131 111.126 86.0701 115.259 78.0133 117.701C69.9565 120.142 61.4715 120.837 53.1249 119.738C44.7783 118.639 36.7623 115.771 29.6122 111.327C22.4622 106.883 16.3427 100.964 11.6626 93.9665C6.98243 86.9686 3.84931 79.0527 2.4725 70.7474C1.09568 62.4421 1.50687 53.9386 3.67858 45.8049C15.0679 56.7808 30.2653 62.9194 46.0826 62.9329C50.3488 62.9965 54.5934 62.3165 58.6263 60.9236C68.0357 57.4382 74.7009 48.9001 79.1553 39.9134C81.7563 34.6072 83.8632 28.9759 87.3486 24.1834C90.1445 20.3787 93.7546 17.2462 97.9155 15.0146C104.821 20.5521 110.393 27.5711 114.22 35.5525C118.047 43.534 120.031 52.2737 120.025 61.1252Z" fill="#B27702"/>
<path opacity="0.5" d="M9.47925 62.4254C9.47967 47.2945 15.2762 32.7386 25.6775 21.7496C36.0787 10.7606 50.2943 4.17338 65.4023 3.34201C64.3272 3.28132 63.2435 3.25098 62.151 3.25098C46.457 3.25098 31.4057 9.48541 20.3084 20.5828C9.21099 31.6801 2.97656 46.7314 2.97656 62.4254C2.97656 78.1195 9.21099 93.1707 20.3084 104.268C31.4057 115.365 46.457 121.6 62.151 121.6C63.2435 121.6 64.3272 121.57 65.4023 121.509C50.2943 120.677 36.0787 114.09 25.6775 103.101C15.2762 92.1122 9.47967 77.5563 9.47925 62.4254Z" fill="#8A7683"/>
<path opacity="0.5" d="M113.522 61.1256C113.521 76.2565 107.725 90.8124 97.3235 101.801C86.9223 112.79 72.7067 119.378 57.5986 120.209C58.6737 120.265 59.7575 120.296 60.85 120.3C76.544 120.3 91.5953 114.066 102.693 102.968C113.79 91.8709 120.024 76.8196 120.024 61.1256C120.024 45.4316 113.79 30.3803 102.693 19.283C91.5953 8.1856 76.544 1.95117 60.85 1.95117C59.7575 1.95117 58.6737 1.98152 57.5986 2.04221C72.7067 2.87358 86.9223 9.46076 97.3235 20.4498C107.725 31.4388 113.521 45.9947 113.522 61.1256Z" fill="#3F5A7C"/>
<path d="M61.5003 122.251C49.4108 122.251 37.5929 118.666 27.5409 111.949C17.4889 105.233 9.65434 95.6861 5.02791 84.5169C0.401485 73.3477 -0.808999 61.0575 1.54953 49.2003C3.90806 37.3432 9.72968 26.4517 18.2782 17.9032C26.8267 9.35468 37.7182 3.53306 49.5753 1.17453C61.4325 -1.184 73.7227 0.0264848 84.8919 4.65291C96.0611 9.27934 105.608 17.1139 112.324 27.1659C119.041 37.2179 122.626 49.0358 122.626 61.1253C122.607 77.3309 116.161 92.8673 104.701 104.326C93.2423 115.786 77.7059 122.232 61.5003 122.251ZM61.5003 3.90164C50.1825 3.90164 39.1189 7.25775 29.7085 13.5456C20.2981 19.8334 12.9636 28.7705 8.63253 39.2267C4.30141 49.683 3.16819 61.1888 5.37617 72.289C7.58416 83.3893 13.0342 93.5856 21.0371 101.588C29.0399 109.591 39.2362 115.041 50.3365 117.249C61.4368 119.457 72.9426 118.324 83.3988 113.993C93.8551 109.662 102.792 102.327 109.08 92.917C115.368 83.5066 118.724 72.443 118.724 61.1253C118.707 45.9539 112.672 31.4088 101.944 20.6811C91.2167 9.95328 76.6716 3.91885 61.5003 3.90164Z" fill="#2E576D"/>
<path d="M61.1361 110.865C51.1684 110.865 41.4247 107.909 33.137 102.371C24.8493 96.8334 18.3899 88.9622 14.5758 79.7532C10.7616 70.5442 9.76401 60.411 11.7091 50.6349C13.6541 40.8589 18.4545 31.8793 25.5031 24.8316C32.5518 17.7838 41.5321 12.9846 51.3083 11.0408C61.0846 9.09701 71.2177 10.0959 80.4262 13.9113C89.6347 17.7266 97.505 24.187 103.042 32.4754C108.579 40.7638 111.533 50.508 111.532 60.4756C111.515 73.8355 106.199 86.6432 96.7519 96.0895C87.3044 105.536 74.496 110.849 61.1361 110.865ZM61.1361 11.3738C51.4262 11.3738 41.9344 14.253 33.8609 19.6474C25.7873 25.0418 19.4947 32.709 15.7786 41.6796C12.0625 50.6502 11.0898 60.5213 12.9837 70.0447C14.8775 79.5681 19.5527 88.316 26.4182 95.1824C33.2836 102.049 42.0309 106.725 51.5541 108.62C61.0772 110.515 70.9484 109.544 79.9195 105.829C88.8906 102.114 96.5587 95.8225 101.954 87.7497C107.35 79.6769 110.23 70.1854 110.231 60.4756C110.218 47.4583 105.041 34.9781 95.8369 25.7729C86.6329 16.5677 74.1533 11.3893 61.1361 11.3738Z" fill="#2E576D"/>
<path d="M26.6813 83.7646C27.1912 83.7597 27.6007 83.3423 27.5958 82.8324C27.5909 82.3224 27.1735 81.913 26.6636 81.9179C26.1536 81.9228 25.7442 82.3401 25.7491 82.8501C25.754 83.36 26.1714 83.7695 26.6813 83.7646Z" fill="white"/>
<path d="M26.7086 86.5478C27.2186 86.5429 27.628 86.1255 27.6231 85.6156C27.6182 85.1056 27.2009 84.6962 26.6909 84.7011C26.181 84.706 25.7715 85.1234 25.7764 85.6333C25.7813 86.1432 26.1987 86.5527 26.7086 86.5478Z" fill="white"/>
<path d="M26.735 89.3232C27.245 89.3183 27.6544 88.9009 27.6495 88.391C27.6446 87.881 27.2272 87.4716 26.7173 87.4765C26.2073 87.4814 25.7979 87.8987 25.8028 88.4087C25.8077 88.9186 26.2251 89.3281 26.735 89.3232Z" fill="white"/>
<path d="M24.0817 80.5126C24.5916 80.5077 25.0011 80.0904 24.9962 79.5804C24.9913 79.0705 24.5739 78.661 24.064 78.6659C23.554 78.6708 23.1446 79.0882 23.1495 79.5981C23.1544 80.1081 23.5717 80.5175 24.0817 80.5126Z" fill="white"/>
<path d="M24.109 83.2958C24.619 83.2909 25.0284 82.8736 25.0235 82.3636C25.0186 81.8537 24.6013 81.4442 24.0913 81.4491C23.5814 81.454 23.1719 81.8714 23.1768 82.3813C23.1817 82.8913 23.5991 83.3007 24.109 83.2958Z" fill="white"/>
<path d="M24.1354 86.078C24.6453 86.0732 25.0548 85.6558 25.0499 85.1458C25.045 84.6359 24.6276 84.2265 24.1177 84.2314C23.6077 84.2363 23.1983 84.6536 23.2032 85.1636C23.2081 85.6735 23.6255 86.0829 24.1354 86.078Z" fill="white"/>
<g opacity="0.5">
<path d="M102.113 41.497C102.623 41.4921 103.032 41.0747 103.027 40.5648C103.023 40.0548 102.605 39.6454 102.095 39.6503C101.585 39.6552 101.176 40.0726 101.181 40.5825C101.186 41.0925 101.603 41.5019 102.113 41.497Z" fill="#3F5A7C"/>
<path d="M102.14 44.2802C102.65 44.2753 103.06 43.8579 103.055 43.348C103.05 42.838 102.633 42.4286 102.123 42.4335C101.613 42.4384 101.203 42.8558 101.208 43.3657C101.213 43.8757 101.63 44.2851 102.14 44.2802Z" fill="#3F5A7C"/>
<path d="M102.167 47.0566C102.677 47.0517 103.086 46.6343 103.081 46.1244C103.076 45.6144 102.659 45.205 102.149 45.2099C101.639 45.2148 101.23 45.6321 101.234 46.1421C101.239 46.652 101.657 47.0615 102.167 47.0566Z" fill="#3F5A7C"/>
<path d="M99.5133 38.245C100.023 38.2401 100.433 37.8228 100.428 37.3128C100.423 36.8029 100.006 36.3935 99.4956 36.3984C98.9857 36.4033 98.5762 36.8206 98.5811 37.3306C98.586 37.8405 99.0034 38.2499 99.5133 38.245Z" fill="#3F5A7C"/>
<path d="M99.5397 41.0282C100.05 41.0233 100.459 40.606 100.454 40.096C100.449 39.5861 100.032 39.1767 99.522 39.1816C99.012 39.1865 98.6026 39.6038 98.6075 40.1138C98.6124 40.6237 99.0298 41.0331 99.5397 41.0282Z" fill="#3F5A7C"/>
<path d="M99.567 43.8046C100.077 43.7997 100.486 43.3824 100.482 42.8724C100.477 42.3625 100.059 41.953 99.5493 41.9579C99.0394 41.9628 98.6299 42.3802 98.6348 42.8901C98.6397 43.4001 99.0571 43.8095 99.567 43.8046Z" fill="#3F5A7C"/>
</g>
<g opacity="0.5">
<path d="M98.2145 84.4169C98.7244 84.412 99.1339 83.9947 99.129 83.4847C99.1241 82.9748 98.7067 82.5653 98.1968 82.5702C97.6868 82.5751 97.2774 82.9925 97.2823 83.5024C97.2872 84.0124 97.7046 84.4218 98.2145 84.4169Z" fill="#3F5A7C"/>
<path d="M98.2409 87.2001C98.7508 87.1952 99.1602 86.7779 99.1553 86.2679C99.1504 85.758 98.7331 85.3485 98.2231 85.3534C97.7132 85.3583 97.3038 85.7757 97.3087 86.2856C97.3136 86.7956 97.7309 87.205 98.2409 87.2001Z" fill="#3F5A7C"/>
<path d="M98.2682 89.9755C98.7782 89.9706 99.1876 89.5533 99.1827 89.0433C99.1778 88.5334 98.7604 88.1239 98.2505 88.1288C97.7405 88.1337 97.3311 88.5511 97.336 89.061C97.3409 89.571 97.7583 89.9804 98.2682 89.9755Z" fill="#3F5A7C"/>
<path d="M95.6149 81.165C96.1248 81.1601 96.5343 80.7427 96.5294 80.2328C96.5245 79.7228 96.1071 79.3134 95.5972 79.3183C95.0872 79.3232 94.6778 79.7405 94.6827 80.2505C94.6876 80.7604 95.1049 81.1699 95.6149 81.165Z" fill="#3F5A7C"/>
<path d="M95.6344 83.9482C96.1444 83.9433 96.5538 83.5259 96.5489 83.016C96.544 82.506 96.1266 82.0966 95.6167 82.1015C95.1068 82.1064 94.6973 82.5237 94.7022 83.0337C94.7071 83.5436 95.1245 83.9531 95.6344 83.9482Z" fill="#3F5A7C"/>
<path d="M95.6618 86.7236C96.1717 86.7187 96.5811 86.3013 96.5762 85.7914C96.5713 85.2814 96.154 84.872 95.644 84.8769C95.1341 84.8818 94.7247 85.2991 94.7296 85.8091C94.7345 86.319 95.1518 86.7284 95.6618 86.7236Z" fill="#3F5A7C"/>
</g>
<path d="M25.9173 36.1638C26.2013 35.7402 26.0881 35.1666 25.6645 34.8826C25.2409 34.5986 24.6673 34.7118 24.3833 35.1354C24.0994 35.559 24.2125 36.1326 24.6361 36.4166C25.0597 36.7005 25.6333 36.5874 25.9173 36.1638Z" fill="white"/>
<path d="M24.3714 38.4675C24.6554 38.0439 24.5422 37.4703 24.1186 37.1863C23.695 36.9024 23.1214 37.0155 22.8375 37.4391C22.5535 37.8627 22.6666 38.4363 23.0902 38.7203C23.5138 39.0043 24.0874 38.8911 24.3714 38.4675Z" fill="white"/>
<path d="M22.8264 40.779C23.1104 40.3555 22.9973 39.7819 22.5737 39.4979C22.1501 39.2139 21.5765 39.327 21.2925 39.7506C21.0085 40.1742 21.1217 40.7478 21.5453 41.0318C21.9689 41.3158 22.5425 41.2026 22.8264 40.779Z" fill="white"/>
<path d="M25.6077 32.0124C25.8917 31.5889 25.7785 31.0153 25.3549 30.7313C24.9314 30.4473 24.3578 30.5604 24.0738 30.984C23.7898 31.4076 23.9029 31.9812 24.3265 32.2652C24.7501 32.5492 25.3237 32.436 25.6077 32.0124Z" fill="white"/>
<path d="M24.0608 34.3132C24.3448 33.8896 24.2316 33.316 23.8081 33.0321C23.3845 32.7481 22.8109 32.8612 22.5269 33.2848C22.2429 33.7084 22.3561 34.282 22.7797 34.566C23.2032 34.85 23.7768 34.7368 24.0608 34.3132Z" fill="white"/>
<path d="M22.5149 36.6179C22.7989 36.1943 22.6857 35.6207 22.2622 35.3367C21.8386 35.0528 21.265 35.1659 20.981 35.5895C20.697 36.0131 20.8102 36.5867 21.2338 36.8707C21.6573 37.1546 22.2309 37.0415 22.5149 36.6179Z" fill="white"/>
<g opacity="0.5">
<path d="M76.582 114.371C77.0674 114.215 77.3341 113.694 77.1777 113.209C77.0213 112.724 76.501 112.457 76.0156 112.613C75.5302 112.77 75.2635 113.29 75.4199 113.775C75.5763 114.261 76.0966 114.527 76.582 114.371Z" fill="#3F5A7C"/>
<path d="M74.1831 114.769C74.6676 114.611 74.9322 114.09 74.7741 113.605C74.616 113.121 74.0951 112.856 73.6106 113.015C73.1261 113.173 72.8616 113.694 73.0196 114.178C73.1777 114.662 73.6986 114.927 74.1831 114.769Z" fill="#3F5A7C"/>
<path d="M71.2919 116.073C71.7773 115.917 72.044 115.397 71.8876 114.911C71.7312 114.426 71.211 114.159 70.7256 114.315C70.2402 114.472 69.9735 114.992 70.1299 115.478C70.2863 115.963 70.8066 116.23 71.2919 116.073Z" fill="#3F5A7C"/>
<path d="M78.9091 110.917C79.3945 110.761 79.6612 110.24 79.5048 109.755C79.3484 109.269 78.8281 109.003 78.3427 109.159C77.8574 109.316 77.5907 109.836 77.7471 110.321C77.9035 110.807 78.4237 111.073 78.9091 110.917Z" fill="#3F5A7C"/>
<path d="M76.2675 111.769C76.7529 111.613 77.0196 111.093 76.8632 110.607C76.7068 110.122 76.1865 109.855 75.7011 110.012C75.2158 110.168 74.9491 110.688 75.1055 111.174C75.2619 111.659 75.7821 111.926 76.2675 111.769Z" fill="#3F5A7C"/>
<path d="M73.6191 112.619C74.1045 112.463 74.3712 111.942 74.2148 111.457C74.0584 110.972 73.5381 110.705 73.0527 110.861C72.5673 111.018 72.3006 111.538 72.457 112.023C72.6134 112.509 73.1337 112.776 73.6191 112.619Z" fill="#3F5A7C"/>
</g>
<path d="M20.4694 73.3622C20.9793 73.3573 21.3888 72.94 21.3839 72.43C21.379 71.9201 20.9616 71.5107 20.4517 71.5156C19.9417 71.5204 19.5323 71.9378 19.5372 72.4478C19.5421 72.9577 19.9594 73.3671 20.4694 73.3622Z" fill="white"/>
<path d="M20.4899 76.1454C20.9998 76.1405 21.4093 75.7232 21.4044 75.2132C21.3995 74.7033 20.9821 74.2939 20.4722 74.2988C19.9622 74.3036 19.5528 74.721 19.5577 75.231C19.5626 75.7409 19.9799 76.1503 20.4899 76.1454Z" fill="white"/>
<path d="M20.5163 78.9208C21.0262 78.9159 21.4356 78.4986 21.4307 77.9886C21.4258 77.4787 21.0085 77.0692 20.4985 77.0741C19.9886 77.079 19.5792 77.4964 19.5841 78.0063C19.589 78.5163 20.0063 78.9257 20.5163 78.9208Z" fill="white"/>
<path d="M12.0801 67.166H24.7083" stroke="#2E576D" stroke-width="0.650268" stroke-miterlimit="10"/>
<path d="M25.7287 68.1156C26.253 68.1156 26.6781 67.6905 26.6781 67.1662C26.6781 66.6419 26.253 66.2168 25.7287 66.2168C25.2044 66.2168 24.7793 66.6419 24.7793 67.1662C24.7793 67.6905 25.2044 68.1156 25.7287 68.1156Z" stroke="#2E576D" stroke-width="0.650268" stroke-miterlimit="10"/>
<path d="M11.4033 64.5527H21.8857" stroke="#2E576D" stroke-width="0.650268" stroke-miterlimit="10"/>
<path d="M22.9074 65.5023C23.4317 65.5023 23.8568 65.0772 23.8568 64.5529C23.8568 64.0286 23.4317 63.6035 22.9074 63.6035C22.3831 63.6035 21.958 64.0286 21.958 64.5529C21.958 65.0772 22.3831 65.5023 22.9074 65.5023Z" stroke="#2E576D" stroke-width="0.650268" stroke-miterlimit="10"/>
<path d="M11.4033 59.3242H17.6004" stroke="#2E576D" stroke-width="0.650268" stroke-miterlimit="10"/>
<path d="M18.6213 60.2738C19.1456 60.2738 19.5707 59.8487 19.5707 59.3244C19.5707 58.8001 19.1456 58.375 18.6213 58.375C18.0969 58.375 17.6719 58.8001 17.6719 59.3244C17.6719 59.8487 18.0969 60.2738 18.6213 60.2738Z" stroke="#2E576D" stroke-width="0.650268" stroke-miterlimit="10"/>
<path d="M11.7412 61.9385H24.4149" stroke="#2E576D" stroke-width="0.650268" stroke-miterlimit="10"/>
<path d="M25.4367 62.888C25.961 62.888 26.3861 62.463 26.3861 61.9386C26.3861 61.4143 25.961 60.9893 25.4367 60.9893C24.9124 60.9893 24.4873 61.4143 24.4873 61.9386C24.4873 62.463 24.9124 62.888 25.4367 62.888Z" stroke="#2E576D" stroke-width="0.650268" stroke-miterlimit="10"/>
<path d="M109.879 67.166H97.251" stroke="#2E576D" stroke-width="0.650268" stroke-miterlimit="10"/>
<path d="M96.2306 68.1156C96.755 68.1156 97.18 67.6905 97.18 67.1662C97.18 66.6419 96.755 66.2168 96.2306 66.2168C95.7063 66.2168 95.2812 66.6419 95.2812 67.1662C95.2812 67.6905 95.7063 68.1156 96.2306 68.1156Z" stroke="#2E576D" stroke-width="0.650268" stroke-miterlimit="10"/>
<path d="M110.557 64.5527H100.074" stroke="#2E576D" stroke-width="0.650268" stroke-miterlimit="10"/>
<path d="M99.0529 65.5023C99.5772 65.5023 100.002 65.0772 100.002 64.5529C100.002 64.0286 99.5772 63.6035 99.0529 63.6035C98.5286 63.6035 98.1035 64.0286 98.1035 64.5529C98.1035 65.0772 98.5286 65.5023 99.0529 65.5023Z" stroke="#2E576D" stroke-width="0.650268" stroke-miterlimit="10"/>
<path d="M110.556 59.3242H104.359" stroke="#2E576D" stroke-width="0.650268" stroke-miterlimit="10"/>
<path d="M103.345 60.2738C103.869 60.2738 104.294 59.8487 104.294 59.3244C104.294 58.8001 103.869 58.375 103.345 58.375C102.821 58.375 102.396 58.8001 102.396 59.3244C102.396 59.8487 102.821 60.2738 103.345 60.2738Z" stroke="#2E576D" stroke-width="0.650268" stroke-miterlimit="10"/>
<path d="M110.218 61.9385H97.5439" stroke="#2E576D" stroke-width="0.650268" stroke-miterlimit="10"/>
<path d="M96.5236 62.888C97.048 62.888 97.473 62.463 97.473 61.9386C97.473 61.4143 97.048 60.9893 96.5236 60.9893C95.9993 60.9893 95.5742 61.4143 95.5742 61.9386C95.5742 62.463 95.9993 62.888 96.5236 62.888Z" stroke="#2E576D" stroke-width="0.650268" stroke-miterlimit="10"/>
<path d="M49.437 59.3769L52.9528 53.489H58.8407L51.5126 63.6552L49.437 59.3769ZM59.8574 72H52.6987L38.4236 53.489H45.7094L59.8574 72ZM48.6745 66.0697L44.5233 72H38.6354L45.9635 62.0879L48.6745 66.0697ZM62.5839 72C64.3348 70.2209 66.015 68.5124 67.6247 66.8745C69.2343 65.2084 70.6745 63.6129 71.9453 62.0879C73.2443 60.5348 74.2609 59.0381 74.9952 57.5979C75.7576 56.1576 76.1389 54.7598 76.1389 53.4043C76.1389 52.8113 76.0259 52.2747 75.8 51.7946C75.6023 51.3146 75.3058 50.9051 74.9105 50.5662C74.5433 50.2273 74.0915 49.9732 73.555 49.8038C73.0466 49.6061 72.4677 49.5072 71.8182 49.5072C71.1687 49.5072 70.5898 49.6061 70.0815 49.8038C69.5732 49.9732 69.1496 50.2132 68.8107 50.5239C68.4718 50.8345 68.2036 51.1734 68.0059 51.5405C67.8365 51.9076 67.7517 52.2888 67.7517 52.6842C67.7517 53.5878 67.8929 54.3927 68.1753 55.0987C68.486 55.7764 68.8954 56.3836 69.4038 56.9201L65.6338 60.3512C64.8148 59.9559 64.1088 59.2922 63.5158 58.3603C62.951 57.4284 62.5133 56.4542 62.2027 55.4375C61.9203 54.3927 61.7791 53.5314 61.7791 52.8536C61.7791 51.3004 62.2027 49.8179 63.0499 48.4059C63.9253 46.9939 65.1819 45.8361 66.8198 44.9324C68.486 44.0288 70.5051 43.5769 72.8772 43.5769C74.8257 43.5769 76.5201 44.0147 77.9603 44.8901C79.4005 45.7655 80.516 46.9233 81.3067 48.3635C82.1256 49.7755 82.5351 51.2863 82.5351 52.896C82.5351 54.1668 82.3374 55.3952 81.9421 56.5812C81.5467 57.7673 80.9961 58.9392 80.2901 60.0971C79.6123 61.2266 78.8357 62.3562 77.9603 63.4858C77.0849 64.5871 76.1812 65.7167 75.2493 66.8745L72.4536 66.0697H82.874V72H62.5839Z" fill="#2E576D"/>
</svg>
