<svg width="1080" height="1080" viewBox="0 0 1080 1080" fill="none" xmlns="http://www.w3.org/2000/svg">
<path d="M545.747 1068.51C834.463 1068.51 1068.51 834.46 1068.51 545.744C1068.51 257.029 834.463 22.9785 545.747 22.9785C257.032 22.9785 22.9814 257.029 22.9814 545.744C22.9814 834.46 257.032 1068.51 545.747 1068.51Z" fill="#FFC742"/>
<path opacity="0.4" d="M1057.02 540.001C1056.95 614.374 1041.01 687.876 1010.27 755.598C979.53 823.32 934.692 883.703 878.751 932.713C822.811 981.724 757.057 1018.23 685.881 1039.81C614.705 1061.38 539.745 1067.51 466.009 1057.8C392.272 1048.09 321.456 1022.76 258.291 983.501C195.125 944.24 141.064 891.952 99.7178 830.131C58.3718 768.31 30.6929 698.378 18.5297 625.006C6.36645 551.634 9.99897 476.512 29.1846 404.656C129.801 501.621 264.06 555.851 403.795 555.971C441.484 556.532 478.982 550.525 514.61 538.22C597.735 507.428 656.618 432.001 695.969 352.609C718.948 305.733 737.561 255.984 768.352 213.645C793.052 180.033 824.945 152.36 861.704 132.646C922.709 181.565 971.936 243.573 1005.74 314.084C1039.55 384.595 1057.08 461.804 1057.02 540.001Z" fill="#B27702"/>
<path opacity="0.5" d="M80.4282 551.489C80.432 417.818 131.641 289.227 223.528 192.146C315.416 95.0657 441.001 36.8725 574.471 29.5279C564.973 28.9917 555.398 28.7236 545.747 28.7236C407.101 28.7236 274.134 83.8006 176.096 181.838C78.0584 279.876 22.9814 412.843 22.9814 551.489C22.9814 690.135 78.0584 823.103 176.096 921.141C274.134 1019.18 407.101 1074.26 545.747 1074.26C555.398 1074.26 564.973 1073.99 574.471 1073.45C441.001 1066.11 315.416 1007.91 223.528 910.833C131.641 813.752 80.432 685.161 80.4282 551.489Z" fill="#8A7683"/>
<path opacity="0.5" d="M999.573 539.999C999.569 673.67 948.36 802.261 856.473 899.342C764.585 996.422 638.999 1054.62 505.53 1061.96C515.028 1062.46 524.603 1062.73 534.254 1062.76C672.9 1062.76 805.867 1007.69 903.905 909.65C1001.94 811.612 1057.02 678.645 1057.02 539.999C1057.02 401.353 1001.94 268.385 903.905 170.347C805.867 72.3099 672.9 17.2329 534.254 17.2329C524.603 17.2329 515.028 17.501 505.53 18.0372C638.999 25.3817 764.585 83.575 856.473 180.655C948.36 277.736 999.569 406.328 999.573 539.999Z" fill="#3F5A7C"/>
<path d="M540 1080C433.198 1080 328.795 1048.33 239.992 988.994C151.19 929.658 81.9766 845.321 41.1053 746.649C0.233975 647.977 -10.4598 539.401 10.3762 434.651C31.2122 329.902 82.6422 233.683 158.163 158.163C233.683 82.6422 329.902 31.2122 434.651 10.3762C539.401 -10.4598 647.977 0.233975 746.649 41.1053C845.321 81.9766 929.658 151.19 988.994 239.992C1048.33 328.795 1080 433.198 1080 540C1079.83 683.166 1022.89 820.42 921.653 921.653C820.42 1022.89 683.166 1079.83 540 1080ZM540 34.4683C440.015 34.4683 342.276 64.1172 259.142 119.666C176.007 175.214 111.212 254.168 72.9496 346.541C34.6871 438.915 24.6759 540.561 44.182 638.624C63.688 736.688 111.835 826.765 182.535 897.465C253.235 968.165 343.312 1016.31 441.376 1035.82C539.439 1055.32 641.085 1045.31 733.459 1007.05C825.833 968.788 904.786 903.993 960.334 820.859C1015.88 737.724 1045.53 639.985 1045.53 540C1045.38 405.971 992.07 277.476 897.297 182.703C802.525 87.9304 674.029 34.6204 540 34.4683Z" fill="#2E576D"/>
<path d="M536.783 979.412C448.726 979.412 362.646 953.299 289.43 904.376C216.214 855.453 159.15 785.917 125.455 704.561C91.7594 623.206 82.9461 533.686 100.129 447.321C117.313 360.957 159.721 281.628 221.991 219.366C284.26 157.104 363.595 114.706 449.962 97.5342C536.328 80.362 625.848 89.1869 707.198 122.893C788.549 156.599 858.078 213.672 906.992 286.894C955.906 360.116 982.007 446.199 981.996 534.257C981.844 652.282 934.887 765.43 851.425 848.881C767.962 932.333 654.809 979.275 536.783 979.412ZM536.783 100.476C451.003 100.476 367.15 125.912 295.825 173.567C224.501 221.223 168.91 288.958 136.081 368.207C103.251 447.456 94.6589 534.661 111.39 618.793C128.12 702.926 169.423 780.208 230.074 840.868C290.726 901.527 368.002 942.84 452.133 959.582C536.263 976.323 623.469 967.742 702.722 934.924C781.976 902.105 849.718 846.523 897.383 775.205C945.048 703.887 970.495 620.037 970.506 534.257C970.385 419.258 924.652 309.004 843.341 227.682C762.03 146.36 651.782 100.613 536.783 100.476Z" fill="#2E576D"/>
<path d="M232.398 740.002C236.903 739.959 240.52 736.272 240.476 731.767C240.433 727.262 236.746 723.645 232.241 723.688C227.736 723.731 224.119 727.418 224.162 731.923C224.206 736.428 227.893 740.045 232.398 740.002Z" fill="white"/>
<path d="M232.641 764.59C237.146 764.547 240.763 760.86 240.72 756.355C240.676 751.85 236.989 748.233 232.484 748.276C227.979 748.319 224.362 752.007 224.405 756.512C224.449 761.017 228.136 764.634 232.641 764.59Z" fill="white"/>
<path d="M232.872 789.114C237.377 789.071 240.994 785.384 240.951 780.879C240.908 776.374 237.221 772.757 232.716 772.8C228.211 772.843 224.594 776.53 224.637 781.035C224.68 785.54 228.367 789.157 232.872 789.114Z" fill="white"/>
<path d="M209.434 711.275C213.939 711.232 217.556 707.545 217.513 703.04C217.469 698.534 213.782 694.918 209.277 694.961C204.772 695.004 201.155 698.691 201.198 703.196C201.242 707.701 204.929 711.318 209.434 711.275Z" fill="white"/>
<path d="M209.673 735.858C214.178 735.815 217.795 732.128 217.752 727.623C217.709 723.117 214.021 719.501 209.516 719.544C205.011 719.587 201.394 723.274 201.438 727.779C201.481 732.284 205.168 735.901 209.673 735.858Z" fill="white"/>
<path d="M209.907 760.441C214.412 760.398 218.029 756.711 217.986 752.206C217.943 747.701 214.256 744.084 209.751 744.127C205.246 744.17 201.629 747.857 201.672 752.362C201.715 756.867 205.402 760.484 209.907 760.441Z" fill="white"/>
<g opacity="0.5">
<path d="M898.783 366.601C903.288 366.558 906.905 362.871 906.862 358.366C906.819 353.861 903.132 350.244 898.627 350.287C894.122 350.33 890.505 354.017 890.548 358.522C890.591 363.027 894.278 366.644 898.783 366.601Z" fill="#3F5A7C"/>
<path d="M899.027 391.186C903.532 391.143 907.149 387.456 907.105 382.951C907.062 378.446 903.375 374.829 898.87 374.872C894.365 374.915 890.748 378.602 890.791 383.107C890.834 387.612 894.522 391.229 899.027 391.186Z" fill="#3F5A7C"/>
<path d="M899.261 415.713C903.766 415.67 907.383 411.983 907.34 407.478C907.296 402.973 903.609 399.356 899.104 399.399C894.599 399.442 890.982 403.13 891.026 407.635C891.069 412.14 894.756 415.757 899.261 415.713Z" fill="#3F5A7C"/>
<path d="M875.82 337.874C880.325 337.83 883.942 334.143 883.898 329.638C883.855 325.133 880.168 321.516 875.663 321.559C871.158 321.603 867.541 325.29 867.584 329.795C867.627 334.3 871.315 337.917 875.82 337.874Z" fill="#3F5A7C"/>
<path d="M876.052 362.457C880.557 362.414 884.174 358.727 884.131 354.222C884.087 349.717 880.4 346.1 875.895 346.143C871.39 346.186 867.773 349.873 867.817 354.378C867.86 358.883 871.547 362.5 876.052 362.457Z" fill="#3F5A7C"/>
<path d="M876.293 386.984C880.798 386.941 884.415 383.254 884.372 378.749C884.329 374.244 880.642 370.627 876.137 370.67C871.632 370.713 868.015 374.401 868.058 378.906C868.101 383.411 871.788 387.028 876.293 386.984Z" fill="#3F5A7C"/>
</g>
<g opacity="0.5">
<path d="M864.346 745.77C868.851 745.726 872.468 742.039 872.425 737.534C872.381 733.029 868.694 729.412 864.189 729.455C859.684 729.499 856.067 733.186 856.111 737.691C856.154 742.196 859.841 745.813 864.346 745.77Z" fill="#3F5A7C"/>
<path d="M864.581 770.355C869.086 770.311 872.703 766.624 872.66 762.119C872.617 757.614 868.93 753.997 864.425 754.04C859.92 754.084 856.303 757.771 856.346 762.276C856.389 766.781 860.076 770.398 864.581 770.355Z" fill="#3F5A7C"/>
<path d="M864.824 794.882C869.329 794.839 872.946 791.151 872.903 786.646C872.86 782.141 869.173 778.524 864.668 778.568C860.163 778.611 856.546 782.298 856.589 786.803C856.632 791.308 860.319 794.925 864.824 794.882Z" fill="#3F5A7C"/>
<path d="M841.382 717.042C845.887 716.999 849.504 713.312 849.461 708.807C849.418 704.302 845.73 700.685 841.225 700.728C836.72 700.771 833.103 704.458 833.147 708.963C833.19 713.468 836.877 717.085 841.382 717.042Z" fill="#3F5A7C"/>
<path d="M841.555 741.626C846.06 741.582 849.677 737.895 849.634 733.39C849.59 728.885 845.903 725.268 841.398 725.311C836.893 725.355 833.276 729.042 833.32 733.547C833.363 738.052 837.05 741.669 841.555 741.626Z" fill="#3F5A7C"/>
<path d="M841.797 766.152C846.302 766.109 849.919 762.422 849.876 757.917C849.833 753.412 846.145 749.795 841.64 749.838C837.135 749.881 833.518 753.569 833.562 758.074C833.605 762.579 837.292 766.196 841.797 766.152Z" fill="#3F5A7C"/>
</g>
<path d="M225.648 319.478C228.157 315.736 227.158 310.669 223.416 308.16C219.674 305.651 214.606 306.651 212.097 310.393C209.589 314.135 210.588 319.202 214.33 321.711C218.072 324.22 223.14 323.22 225.648 319.478Z" fill="white"/>
<path d="M211.99 339.839C214.499 336.097 213.499 331.03 209.757 328.521C206.015 326.012 200.948 327.012 198.439 330.754C195.93 334.496 196.93 339.563 200.672 342.072C204.414 344.581 209.481 343.581 211.99 339.839Z" fill="white"/>
<path d="M198.342 360.255C200.851 356.513 199.851 351.445 196.109 348.936C192.367 346.428 187.3 347.427 184.791 351.169C182.282 354.911 183.282 359.979 187.024 362.488C190.766 364.996 195.833 363.997 198.342 360.255Z" fill="white"/>
<path d="M222.915 282.803C225.424 279.061 224.424 273.994 220.682 271.485C216.94 268.976 211.873 269.976 209.364 273.718C206.855 277.46 207.855 282.527 211.597 285.036C215.339 287.545 220.406 286.545 222.915 282.803Z" fill="white"/>
<path d="M209.249 303.134C211.758 299.392 210.758 294.325 207.016 291.816C203.274 289.307 198.207 290.307 195.698 294.049C193.189 297.791 194.189 302.858 197.931 305.367C201.673 307.876 206.74 306.876 209.249 303.134Z" fill="white"/>
<path d="M195.592 323.495C198.101 319.753 197.101 314.686 193.359 312.177C189.617 309.668 184.55 310.667 182.041 314.41C179.532 318.152 180.532 323.219 184.274 325.728C188.016 328.237 193.083 327.237 195.592 323.495Z" fill="white"/>
<g opacity="0.5">
<path d="M673.238 1010.39C677.526 1009 679.882 1004.41 678.5 1000.12C677.119 995.831 672.522 993.475 668.234 994.857C663.946 996.239 661.59 1000.84 662.972 1005.12C664.353 1009.41 668.95 1011.77 673.238 1010.39Z" fill="#3F5A7C"/>
<path d="M652.045 1013.9C656.325 1012.5 658.663 1007.9 657.266 1003.62C655.87 999.343 651.268 997.006 646.988 998.402C642.708 999.799 640.37 1004.4 641.767 1008.68C643.164 1012.96 647.766 1015.3 652.045 1013.9Z" fill="#3F5A7C"/>
<path d="M626.502 1025.42C630.79 1024.04 633.147 1019.44 631.765 1015.15C630.383 1010.87 625.787 1008.51 621.499 1009.89C617.211 1011.27 614.854 1015.87 616.236 1020.16C617.618 1024.45 622.214 1026.8 626.502 1025.42Z" fill="#3F5A7C"/>
<path d="M693.795 979.871C698.083 978.489 700.44 973.893 699.058 969.604C697.676 965.316 693.08 962.96 688.792 964.342C684.504 965.724 682.147 970.32 683.529 974.608C684.911 978.896 689.507 981.252 693.795 979.871Z" fill="#3F5A7C"/>
<path d="M670.457 987.408C674.746 986.026 677.102 981.43 675.72 977.142C674.338 972.853 669.742 970.497 665.454 971.879C661.166 973.261 658.81 977.857 660.191 982.145C661.573 986.433 666.169 988.789 670.457 987.408Z" fill="#3F5A7C"/>
<path d="M647.06 994.908C651.348 993.526 653.704 988.93 652.322 984.642C650.941 980.353 646.344 977.997 642.056 979.379C637.768 980.761 635.412 985.357 636.794 989.645C638.176 993.933 642.772 996.289 647.06 994.908Z" fill="#3F5A7C"/>
</g>
<path d="M177.52 648.106C182.025 648.063 185.642 644.376 185.598 639.871C185.555 635.366 181.868 631.749 177.363 631.792C172.858 631.836 169.241 635.523 169.284 640.028C169.328 644.533 173.015 648.15 177.52 648.106Z" fill="white"/>
<path d="M177.7 672.688C182.205 672.645 185.822 668.958 185.779 664.453C185.736 659.948 182.049 656.331 177.544 656.374C173.039 656.418 169.422 660.105 169.465 664.61C169.508 669.115 173.195 672.732 177.7 672.688Z" fill="white"/>
<path d="M177.935 697.216C182.44 697.173 186.057 693.486 186.014 688.981C185.97 684.476 182.283 680.859 177.778 680.902C173.273 680.945 169.656 684.633 169.699 689.138C169.743 693.643 173.43 697.26 177.935 697.216Z" fill="white"/>
<path d="M103.405 593.369H214.967" stroke="#2E576D" stroke-width="5.74468" stroke-miterlimit="10"/>
<path d="M223.979 601.754C228.611 601.754 232.366 597.999 232.366 593.367C232.366 588.735 228.611 584.979 223.979 584.979C219.347 584.979 215.592 588.735 215.592 593.367C215.592 597.999 219.347 601.754 223.979 601.754Z" stroke="#2E576D" stroke-width="5.74468" stroke-miterlimit="10"/>
<path d="M97.4258 570.274H190.03" stroke="#2E576D" stroke-width="5.74468" stroke-miterlimit="10"/>
<path d="M199.057 578.667C203.689 578.667 207.444 574.912 207.444 570.28C207.444 565.648 203.689 561.893 199.057 561.893C194.425 561.893 190.67 565.648 190.67 570.28C190.67 574.912 194.425 578.667 199.057 578.667Z" stroke="#2E576D" stroke-width="5.74468" stroke-miterlimit="10"/>
<path d="M97.4258 524.087H152.173" stroke="#2E576D" stroke-width="5.74468" stroke-miterlimit="10"/>
<path d="M161.193 532.477C165.825 532.477 169.58 528.722 169.58 524.089C169.58 519.457 165.825 515.702 161.193 515.702C156.561 515.702 152.806 519.457 152.806 524.089C152.806 528.722 156.561 532.477 161.193 532.477Z" stroke="#2E576D" stroke-width="5.74468" stroke-miterlimit="10"/>
<path d="M100.41 547.188H212.374" stroke="#2E576D" stroke-width="5.74468" stroke-miterlimit="10"/>
<path d="M221.4 555.567C226.032 555.567 229.787 551.812 229.787 547.18C229.787 542.548 226.032 538.792 221.4 538.792C216.768 538.792 213.013 542.548 213.013 547.18C213.013 551.812 216.768 555.567 221.4 555.567Z" stroke="#2E576D" stroke-width="5.74468" stroke-miterlimit="10"/>
<path d="M967.394 593.369H855.832" stroke="#2E576D" stroke-width="5.74468" stroke-miterlimit="10"/>
<path d="M846.816 601.754C851.448 601.754 855.203 597.999 855.203 593.367C855.203 588.735 851.448 584.979 846.816 584.979C842.184 584.979 838.429 588.735 838.429 593.367C838.429 597.999 842.184 601.754 846.816 601.754Z" stroke="#2E576D" stroke-width="5.74468" stroke-miterlimit="10"/>
<path d="M973.376 570.274H880.771" stroke="#2E576D" stroke-width="5.74468" stroke-miterlimit="10"/>
<path d="M871.753 578.667C876.385 578.667 880.14 574.912 880.14 570.28C880.14 565.648 876.385 561.893 871.753 561.893C867.12 561.893 863.365 565.648 863.365 570.28C863.365 574.912 867.12 578.667 871.753 578.667Z" stroke="#2E576D" stroke-width="5.74468" stroke-miterlimit="10"/>
<path d="M973.377 524.087H918.63" stroke="#2E576D" stroke-width="5.74468" stroke-miterlimit="10"/>
<path d="M909.669 532.477C914.302 532.477 918.057 528.722 918.057 524.089C918.057 519.457 914.302 515.702 909.669 515.702C905.037 515.702 901.282 519.457 901.282 524.089C901.282 528.722 905.037 532.477 909.669 532.477Z" stroke="#2E576D" stroke-width="5.74468" stroke-miterlimit="10"/>
<path d="M970.384 547.188H858.42" stroke="#2E576D" stroke-width="5.74468" stroke-miterlimit="10"/>
<path d="M849.406 555.567C854.038 555.567 857.793 551.812 857.793 547.18C857.793 542.548 854.038 538.792 849.406 538.792C844.774 538.792 841.019 542.548 841.019 547.18C841.019 551.812 844.774 555.567 849.406 555.567Z" stroke="#2E576D" stroke-width="5.74468" stroke-miterlimit="10"/>
</svg>
