<svg width="235" height="146" viewBox="0 0 235 146" fill="none" xmlns="http://www.w3.org/2000/svg">
<path d="M222.542 91.7323C214.242 113.227 198.636 132.052 176.961 140.327C174.141 141.401 171.263 142.313 168.339 143.057C152.874 147 135.956 145.629 121.7 138.444C115.65 135.392 110.133 131.36 104.06 128.352C97.9881 125.344 91.0538 123.376 84.4447 124.86C78.7541 126.139 73.9529 129.802 69.1188 133.066C57.723 140.76 44.0207 146.848 30.5265 144.206C24.3173 142.991 18.203 139.628 15.3194 134.004C8.94577 121.573 20.9661 106.793 18.5317 93.0454C16.974 84.2465 9.85889 77.6574 5.43572 69.8922C-2.13407 56.6136 -1.23921 38.9666 7.63635 26.5207C16.5119 14.0748 32.897 7.47293 47.9197 10.2963C66.237 13.7388 80.0891 29.2436 97.9023 34.7278C109.042 38.1557 121.138 37.133 131.777 32.6185C148.968 25.3227 172.585 14.1333 191.93 15.9558C202.218 16.9256 212.308 21.4912 219.098 29.2875C227.681 39.1291 230.254 53.1017 228.822 66.079C227.84 74.8644 225.729 83.4866 222.542 91.7323Z" fill="url(#paint0_linear_868_6657)"/>
<path d="M228.065 108.731C227.683 108.731 227.303 108.685 226.933 108.594C225.76 108.306 224.743 107.582 224.087 106.568C223.431 105.555 223.186 104.33 223.403 103.143C223.62 101.955 224.282 100.896 225.254 100.18C226.226 99.4641 227.434 99.1462 228.632 99.2911C229.831 99.4361 230.928 100.033 231.701 100.96C232.474 101.887 232.865 103.074 232.792 104.278C232.72 105.483 232.19 106.615 231.312 107.442C230.433 108.27 229.272 108.731 228.065 108.731ZM228.065 101.394C227.437 101.396 226.832 101.628 226.363 102.046C225.894 102.463 225.594 103.038 225.52 103.661C225.445 104.285 225.601 104.914 225.958 105.43C226.315 105.947 226.849 106.315 227.459 106.465C227.811 106.55 228.178 106.559 228.535 106.492C228.892 106.425 229.23 106.283 229.528 106.076C229.826 105.868 230.077 105.6 230.264 105.289C230.451 104.978 230.57 104.631 230.613 104.27C230.656 103.91 230.622 103.544 230.514 103.198C230.405 102.851 230.225 102.532 229.984 102.26C229.744 101.988 229.448 101.771 229.117 101.621C228.787 101.472 228.428 101.394 228.065 101.394Z" fill="#E7F6FF"/>
<path d="M223.742 113.756C224.011 112.646 223.329 111.527 222.218 111.258C221.108 110.989 219.989 111.671 219.72 112.781C219.451 113.892 220.133 115.01 221.243 115.28C222.354 115.549 223.472 114.867 223.742 113.756Z" fill="#E7F6FF"/>
<path d="M10.1518 108.28C8.89744 108.253 7.70452 107.732 6.832 106.83C5.95948 105.929 5.47779 104.719 5.4915 103.465C5.5052 102.21 6.0132 101.011 6.90521 100.129C7.79721 99.2468 9.00124 98.752 10.2559 98.752C11.5105 98.752 12.7146 99.2468 13.6066 100.129C14.4986 101.011 15.0066 102.21 15.0203 103.465C15.034 104.719 14.5523 105.929 13.6798 106.83C12.8073 107.732 11.6143 108.253 10.36 108.28H10.1518ZM10.1518 100.944H10.044C9.36658 100.959 8.72224 101.24 8.25093 101.727C7.77962 102.214 7.51938 102.867 7.52672 103.545C7.53405 104.222 7.80837 104.87 8.29011 105.346C8.77185 105.823 9.42212 106.09 10.0997 106.09C10.7774 106.09 11.4276 105.823 11.9094 105.346C12.3911 104.87 12.6654 104.222 12.6728 103.545C12.6801 102.867 12.4199 102.214 11.9486 101.727C11.4773 101.24 10.8329 100.959 10.1554 100.944H10.1518Z" fill="#E7F6FF"/>
<path d="M6.75337 116.276C7.89507 116.226 8.78067 115.261 8.73142 114.119C8.68217 112.978 7.71672 112.092 6.57503 112.141C5.43334 112.191 4.54774 113.156 4.59698 114.298C4.64623 115.439 5.61168 116.325 6.75337 116.276Z" fill="#E7F6FF"/>
<path d="M129.568 31.2498C128.431 31.2515 127.331 30.846 126.467 30.1069C125.603 29.3678 125.032 28.3438 124.858 27.2203C124.684 26.0968 124.917 24.948 125.517 23.9818C126.116 23.0157 127.041 22.296 128.125 21.9531C129.209 21.6102 130.38 21.6666 131.426 22.1123C132.472 22.5579 133.324 23.3633 133.828 24.3826C134.331 25.402 134.453 26.5679 134.172 27.6694C133.89 28.771 133.224 29.7353 132.293 30.3879C131.494 30.9474 130.543 31.2483 129.568 31.2498ZM129.553 23.9138C128.888 23.9131 128.248 24.1692 127.767 24.6287C127.286 25.0881 127.001 25.7155 126.971 26.3801C126.941 27.0447 127.169 27.6952 127.607 28.196C128.045 28.6968 128.659 29.0092 129.321 29.0683C129.984 29.1273 130.644 28.9283 131.163 28.5128C131.683 28.0973 132.022 27.4973 132.11 26.8379C132.198 26.1785 132.028 25.5105 131.636 24.9733C131.244 24.436 130.659 24.0709 130.004 23.954C129.855 23.9274 129.704 23.914 129.553 23.9138Z" fill="#E7F6FF"/>
<path d="M119.854 30.9873C120.79 30.3312 121.016 29.0409 120.36 28.1052C119.704 27.1696 118.414 26.943 117.478 27.5991C116.543 28.2552 116.316 29.5456 116.972 30.4812C117.628 31.4168 118.919 31.6434 119.854 30.9873Z" fill="#E7F6FF"/>
<path d="M234.927 55.7923C234.929 53.7845 234.133 51.8582 232.715 50.4369C231.297 49.0156 229.372 48.2158 227.364 48.2134C227.196 48.2134 227.03 48.2134 226.866 48.2298C226.877 48.0655 226.882 47.8993 226.882 47.7313C226.882 46.6551 226.653 45.5914 226.209 44.611C225.765 43.6306 225.118 42.756 224.309 42.0456C223.501 41.3351 222.55 40.8052 221.521 40.491C220.492 40.1768 219.408 40.0857 218.34 40.2236C217.273 40.3615 216.247 40.7253 215.332 41.2908C214.416 41.8564 213.632 42.6105 213.031 43.5031C212.429 44.3957 212.025 45.4062 211.846 46.4672C211.666 47.5282 211.714 48.6153 211.987 49.6561C211.072 48.9925 210.02 48.5422 208.908 48.3382C207.797 48.1343 206.653 48.1819 205.562 48.4775C204.471 48.7732 203.46 49.3093 202.603 50.0467C201.746 50.7841 201.066 51.704 200.611 52.7389C200.156 53.7737 199.939 54.8973 199.975 56.0271C200.011 57.1569 200.299 58.2644 200.819 59.2681C201.339 60.2719 202.077 61.1464 202.979 61.8277C203.881 62.509 204.924 62.9796 206.032 63.2051C206.484 64.4045 207.234 65.4695 208.21 66.3002C209.186 67.1309 210.358 67.7002 211.614 67.9546C212.87 68.209 214.171 68.1403 215.393 67.7548C216.616 67.3694 217.721 66.6799 218.604 65.7509C219.508 66.4331 220.553 66.9039 221.663 67.1286C222.773 67.3533 223.919 67.3262 225.017 67.0494C226.115 66.7725 227.137 66.2529 228.007 65.5288C228.878 64.8047 229.575 63.8946 230.047 62.8654C231.481 62.3196 232.716 61.351 233.587 60.0879C234.459 58.8249 234.926 57.3269 234.927 55.7923Z" fill="white"/>
<path d="M35.0358 37.5839C35.0358 35.5761 34.2383 33.6505 32.8188 32.2306C31.3992 30.8107 29.4738 30.0127 27.466 30.0122C27.298 30.0122 27.1318 30.0122 26.9675 30.0287C26.9784 29.8643 26.9839 29.6981 26.9839 29.5301C26.9837 28.454 26.7541 27.3902 26.3104 26.4098C25.8667 25.4294 25.2191 24.5548 24.4108 23.8444C23.6025 23.134 22.652 22.604 21.6228 22.2898C20.5935 21.9756 19.5091 21.8845 18.4419 22.0224C17.3746 22.1603 16.349 22.5242 15.4334 23.0897C14.5178 23.6552 13.7333 24.4094 13.1322 25.3019C12.531 26.1945 12.1271 27.205 11.9472 28.266C11.7673 29.327 11.8157 30.4141 12.089 31.455C11.1739 30.7913 10.1218 30.341 9.00998 30.1371C7.89812 29.9331 6.75471 29.9807 5.66364 30.2763C4.57258 30.572 3.56156 31.1082 2.70477 31.8456C1.84799 32.5829 1.16718 33.5028 0.712312 34.5377C0.257445 35.5725 0.0400633 36.6961 0.0761184 37.8259C0.112174 38.9558 0.400751 40.0632 0.920673 41.0669C1.44059 42.0707 2.17867 42.9453 3.08072 43.6265C3.98278 44.3078 5.02594 44.7784 6.13363 45.0039C6.58631 46.2023 7.33565 47.2662 8.31151 48.0961C9.28737 48.9261 10.4578 49.4948 11.7134 49.7492C12.9689 50.0035 14.2685 49.9352 15.4904 49.5505C16.7123 49.1658 17.8166 48.4774 18.7 47.5497C19.6038 48.2319 20.6491 48.7027 21.759 48.9274C22.8688 49.1521 24.0149 49.1251 25.1129 48.8482C26.2109 48.5713 27.2328 48.0517 28.1034 47.3276C28.974 46.6035 29.671 45.6934 30.1433 44.6642C31.581 44.12 32.8191 43.1512 33.693 41.8865C34.5669 40.6218 35.0353 39.1211 35.0358 37.5839Z" fill="white"/>
<path opacity="0.04" d="M167.757 101.514H114.113L61.247 118.25V118.619H7.21387V136.499H61.247V136.13L114.113 119.395H167.757V119.272L221.402 102.292V84.4111L167.757 101.392V101.514Z" fill="#A8A8A8"/>
<path d="M28.3301 31.584H74.4483V137.09H28.3301V31.584Z" fill="white"/>
<path d="M210.175 107.103L164.059 121.7V16.1939L210.175 1.59668V107.103Z" fill="#E5E5E5"/>
<path d="M118.273 16.1934H164.392V121.699H118.273V16.1934Z" fill="white"/>
<path d="M118.605 121.699L72.4863 136.298V30.7924L118.605 16.1934V121.699Z" fill="#E5E5E5"/>
<path d="M58.8828 70.9365H69.1682V128.666H58.8828V70.9365Z" fill="#E8EDF7"/>
<path d="M129.286 58.3311H122.587V113.407H144.516L129.286 58.3311Z" fill="#C0CEE2"/>
<path d="M131.617 58.3311L146.848 113.407H160.077V58.3311H131.617Z" fill="#C0CEE2"/>
<path d="M203.631 11.1338L169.697 21.5251V26.4779V37.4756V38.4234L203.631 11.1338Z" fill="#C0CEE2"/>
<path d="M169.697 41.5761V42.3651V54.1571L205.53 43.1029V26.4785V12.7598L169.697 41.5761Z" fill="#E8837E"/>
<path d="M205.53 85.1664V81.7659V54.1184V49.2295V45.5332L169.697 56.5857V57.9608L205.53 85.1664Z" fill="#C0CEE2"/>
<path d="M78.791 111.416V127.341V127.414L86.7498 124.83L86.7626 124.757L91.7391 123.144L91.7282 123.213L114.624 115.779V115.728V101.253V96.3639V75.583L78.791 111.416Z" fill="#C0CEE2"/>
<path d="M114.551 72.5197L114.624 72.5927V68.7174V63.8286V59.3652L78.791 70.4195V84.6094V89.4983V108.279L114.551 72.5197Z" fill="#C0CEE2"/>
<path d="M191.269 77.0204L169.697 60.6426V70.0131V74.9001V83.6752L191.269 77.0204Z" fill="#E8837E"/>
<path d="M56.5612 107.034V70.9365H31.6768V114.71L56.5612 107.034Z" fill="#E8837E"/>
<path d="M31.6768 117.14V128.666H56.5612V109.463L31.6768 117.14Z" fill="#E8EDF7"/>
<path d="M204.866 21.501H206.524V23.4916H204.866V21.501Z" fill="white"/>
<path d="M206.524 39.4163H204.866V35.4278H206.524V39.4163ZM206.524 31.4539H204.866V27.4727H206.524V31.4539Z" fill="white"/>
<path d="M204.785 47.676L203.667 46.4506L204.867 45.3549V43.7295H206.525V46.0872L204.785 47.676Z" fill="white"/>
<path d="M160.739 71.93H156.763V70.2718H160.744L160.739 71.93ZM153.109 71.93H149.127V70.2718H153.111L153.109 71.93ZM145.146 71.93H141.165V70.2718H145.146V71.93ZM164.988 71.5647L164.603 69.9503L168.451 69.0299L168.836 70.6443L164.988 71.5647ZM172.692 69.7239L172.304 68.1168L176.156 67.2037L176.541 68.8181L172.692 69.7239ZM180.395 67.883L180.009 66.2686L182.402 65.697L183.194 64.9665L184.312 66.1919L183.203 67.2037L180.395 67.883ZM187.236 63.5293L186.118 62.3038L189.04 59.6339L190.158 60.8593L187.236 63.5293ZM193.08 58.1875L191.962 56.9621L194.884 54.2921L196.002 55.5175L193.08 58.1875ZM198.924 52.8475L197.806 51.6221L200.728 48.9521L201.846 50.1776L198.924 52.8475Z" fill="white"/>
<path d="M135.005 73.2511L133.535 72.4822L134.689 70.2725H137.182V71.9307H135.694L135.005 73.2511Z" fill="white"/>
<path d="M128.764 84.8605L127.294 84.0935L128.832 81.1495L130.302 81.9166L128.764 84.8605ZM131.839 78.9727L130.369 78.2056L131.907 75.2617L133.377 76.0287L131.839 78.9727Z" fill="white"/>
<path d="M125.581 90.9553L123.896 87.8251L125.357 87.038L125.559 87.4142L125.756 87.0361L127.227 87.8032L125.581 90.9553Z" fill="white"/>
<path d="M120.51 81.5322L121.97 80.7461L123.663 83.8913L122.203 84.6774L120.51 81.5322Z" fill="white"/>
<path d="M118.817 78.3902L118.189 77.2269L116.917 77.5903L116.461 75.996L119.016 75.2637L120.276 77.6049L118.817 78.3902Z" fill="white"/>
<path d="M73.5761 90.1783H72.8164V88.5201H73.3424L76.2644 87.6818L76.7209 89.2761L73.5761 90.1783ZM68.8279 90.1783H65.1754V88.5201H68.8279V90.1783ZM61.1978 90.1783H57.5453V88.5201H61.1978V90.1783ZM53.8928 90.1783H50.2403V88.5201H53.8928V90.1783ZM46.2628 90.1783H42.623V88.5201H46.2755L46.2628 90.1783ZM80.3844 88.0635L79.926 86.4692L83.5785 85.4209L84.0369 87.0153L80.3844 88.0635ZM87.6894 85.9688L87.2328 84.3745L90.8853 83.3281L91.3418 84.9224L87.6894 85.9688ZM94.9943 83.8741L94.5378 82.2798L98.1903 81.2334L98.6468 82.8277L94.9943 83.8741ZM102.299 81.7794L101.843 80.1851L105.495 79.1387L105.952 80.733L102.299 81.7794ZM109.604 79.6847L109.148 78.0904L112.8 77.0439L113.257 78.6383L109.604 79.6847Z" fill="white"/>
<path d="M37.3173 91.1734H35.6572V88.1875H38.6431V89.8476H37.3173V91.1734Z" fill="white"/>
<path d="M35.9902 96.1523H37.6485V101.129H35.9902V96.1523Z" fill="white"/>
<path d="M35.9902 106.436H37.6485V108.426H35.9902V106.436Z" fill="white"/>
<path d="M45.2812 38.7559H69.1686V68.6168H45.2812V38.7559Z" fill="#E8EDF7"/>
<path d="M31.6768 38.7559H42.9575V68.6168H31.6768V38.7559Z" fill="#E8837E"/>
<path d="M193.546 78.748L177.634 83.657L188.44 106.73L205.532 101.18V101.131V87.8482L193.546 78.748Z" fill="#E8837E"/>
<path d="M186.212 107.452L175.392 84.3486L169.697 86.1055V112.741V112.816L177.656 110.232L177.669 110.159L182.645 108.546L182.634 108.614L186.212 107.452Z" fill="#C0CEE2"/>
<path d="M28.4044 137.241L26.2129 137.233L26.2677 121.301V29.9652H72.3165L118.093 15.4739L124.175 15.3662H163.888L211.27 0.367188V24.8645H209.079V3.36041L164.228 17.5577H124.186L118.451 17.6599L72.6562 32.1567H28.4592V121.305L28.4044 137.241Z" fill="#426572"/>
<path d="M73.5454 137.663H27.3633V135.472H73.4176L73.6495 135.444L118.429 120.873H164.319L164.953 120.79L209.079 106.573V51.709H211.27V108.169L165.435 122.938L164.46 123.064H118.778L74.1189 137.596L73.5454 137.663Z" fill="#426572"/>
<path d="M209.079 42.7617H211.271V46.8708H209.079V42.7617Z" fill="#426572"/>
<path d="M209.079 29.0342H211.271V40.1122H209.079V29.0342Z" fill="#426572"/>
<path opacity="0.2" d="M122.066 4.30386C94.6136 4.24542 77.5053 21.5199 77.4542 48.7237C77.4359 57.1244 81.8591 70.2478 89.4928 86.0923C92.9407 92.7782 97.1265 100.206 101.566 107.642C106.986 116.803 112.9 125.967 118.82 134.386L121.779 138.352C122.771 137.114 123.762 135.881 124.754 134.398C130.709 125.757 136.663 116.866 142.123 107.735C146.594 100.324 150.566 92.9152 154.042 86.2421C161.991 70.4323 166.469 57.3326 166.487 48.9264C166.544 22.4531 148.776 4.3623 122.066 4.30386ZM121.911 76.0206C105.588 75.9859 92.2614 62.605 92.2979 46.2802C92.3344 29.9553 105.717 16.6329 122.04 16.6676C138.363 16.7023 151.689 30.0868 151.651 46.408C151.613 62.7292 138.235 76.0571 121.912 76.0224L121.911 76.0206Z" fill="#8DA3B2"/>
<path d="M144.838 42.7884C144.803 59.1169 131.418 72.4394 115.095 72.4029C100.958 72.3718 89.0676 62.3311 86.1639 49.0269C85.8657 47.3204 85.7184 45.591 85.7238 43.8586C85.7548 27.5393 99.1394 14.2113 115.461 14.2442C129.576 14.2752 141.452 24.2886 144.383 37.5526C144.382 37.5599 144.382 37.5673 144.383 37.5745C144.689 39.2956 144.841 41.0404 144.838 42.7884Z" fill="white"/>
<path d="M115.546 1.05875C88.0974 0.998485 70.9928 18.2748 70.9307 45.4731C70.9125 53.8738 75.3356 66.9972 82.9693 82.8418C86.4173 89.5277 90.6031 96.955 95.0427 104.391C100.463 113.552 106.376 122.716 112.297 131.135L115.256 135.102C116.247 133.863 117.239 132.631 118.231 131.148C124.186 122.506 130.139 113.616 135.6 104.485C140.071 97.0737 144.043 89.6646 147.518 82.9915C155.468 67.1817 159.946 54.082 159.964 45.6758C160.022 19.208 142.257 1.11536 115.546 1.05875ZM115.391 72.7755C99.0695 72.7408 85.7434 59.3526 85.7781 43.035C85.8128 26.7175 99.1974 13.3859 115.519 13.4206C131.84 13.4553 145.168 26.8454 145.133 43.1629C145.098 59.4804 131.714 72.812 115.391 72.7755Z" fill="#E8837E"/>
<path d="M145.806 86.9288C142.753 92.7161 139.349 98.9455 135.59 105.175C130.133 114.306 124.178 123.202 118.223 131.838C117.231 133.321 116.239 134.554 115.246 135.792L112.287 131.825C106.37 123.406 100.453 114.242 95.0348 105.083C90.5952 97.6507 86.4095 90.2233 82.9615 83.5338C75.3278 67.6892 70.9083 54.5713 70.9229 46.1651C70.9466 34.9391 73.8741 25.4061 79.2323 18.0811C77.1102 23.6055 75.9871 29.8987 75.9706 36.8366C75.9524 45.2374 80.3755 58.3626 88.0093 74.2053C91.4572 80.8912 95.643 88.3185 100.083 95.755C105.501 104.914 111.416 114.078 117.335 122.497L120.294 126.463C121.287 125.225 122.279 123.992 123.27 122.51C129.224 113.87 135.179 104.978 140.638 95.8463C142.444 92.8604 144.163 89.8708 145.806 86.9288Z" fill="#D66765"/>
<path d="M115.213 137.41L111.245 132.091C105.322 123.666 99.3378 114.389 93.9376 105.261C89.308 97.5216 85.1205 90.034 81.8277 83.6531L81.8131 83.622C73.7229 66.8315 69.6302 54.0715 69.6485 45.6964C69.6777 31.9739 73.9694 20.4467 82.056 12.36C90.1426 4.27342 101.674 0 115.398 0H115.54C128.965 0.02922 140.428 4.44874 148.692 12.7837C152.773 16.9218 155.94 21.8697 157.99 27.3079C160.157 32.9692 161.249 39.2223 161.235 45.8936C161.217 54.3436 156.866 67.4433 148.652 83.7809V83.7974C145.558 89.7363 141.404 97.5527 136.696 105.36C130.862 115.123 124.62 124.353 119.284 132.094C118.283 133.588 117.275 134.852 116.291 136.074L115.213 137.41ZM113.327 130.606L115.283 133.228C115.916 132.419 116.537 131.585 117.164 130.659C122.485 122.937 128.698 113.75 134.497 104.045C139.168 96.2998 143.297 88.531 146.367 82.6267C154.403 66.6471 158.656 53.9437 158.674 45.8899C158.702 33.2231 154.62 22.3971 146.873 14.5844C139.103 6.74251 128.264 2.58414 115.535 2.55675H115.398C102.366 2.55675 91.463 6.57449 83.8622 14.168C76.2613 21.7616 72.2326 32.6697 72.2089 45.7018C72.1925 53.573 76.3088 66.2964 84.1124 82.4971C87.3795 88.8341 91.5379 96.2542 96.1382 103.955C101.5 113.025 107.445 122.238 113.327 130.606ZM115.449 74.2753H115.381C109.258 74.2696 103.275 72.446 98.1892 69.0357C93.1037 65.6254 89.1453 60.782 86.8156 55.1194C84.4859 49.4568 83.89 43.23 85.1033 37.2283C86.3165 31.2266 89.2845 25.7203 93.6308 21.4073C96.4911 18.5361 99.891 16.2589 103.635 14.7068C107.379 13.1548 111.393 12.3584 115.445 12.3637H115.513C121.636 12.3698 127.619 14.1935 132.704 17.6037C137.789 21.0139 141.747 25.857 144.077 31.5193C146.406 37.1815 147.002 43.4079 145.789 49.4093C144.577 55.4106 141.609 60.9168 137.263 65.2299C134.403 68.1014 131.003 70.3789 127.26 71.9313C123.516 73.4837 119.502 74.2803 115.449 74.2753ZM115.449 14.9223C107.973 14.9987 100.828 18.0203 95.5658 23.3312C90.3034 28.6421 87.3475 35.814 87.3395 43.2906C87.3316 50.7672 90.2723 57.9453 95.5234 63.2674C100.775 68.5895 107.913 71.6262 115.389 71.7186H115.451C122.927 71.6421 130.071 68.6205 135.334 63.3096C140.596 57.9987 143.552 50.8268 143.56 43.3502C143.568 35.8736 140.627 28.6955 135.376 23.3734C130.125 18.0513 122.987 15.0146 115.511 14.9223H115.449Z" fill="#426572"/>
<path d="M174.329 145.329H65.3936V142.955H174.329C174.644 142.955 174.946 143.08 175.169 143.303C175.391 143.525 175.516 143.827 175.516 144.142C175.516 144.457 175.391 144.759 175.169 144.982C174.946 145.204 174.644 145.329 174.329 145.329Z" fill="#426572"/>
<path d="M60.5212 145.329H53.8609C53.5461 145.329 53.2441 145.204 53.0215 144.982C52.7989 144.759 52.6738 144.457 52.6738 144.142C52.6738 143.827 52.7989 143.525 53.0215 143.303C53.2441 143.08 53.5461 142.955 53.8609 142.955H60.5212C60.836 142.955 61.138 143.08 61.3606 143.303C61.5832 143.525 61.7083 143.827 61.7083 144.142C61.7083 144.457 61.5832 144.759 61.3606 144.982C61.138 145.204 60.836 145.329 60.5212 145.329Z" fill="#426572"/>
<path d="M49.5377 145.329H47.4156C47.1007 145.329 46.7988 145.204 46.5762 144.982C46.3536 144.759 46.2285 144.457 46.2285 144.142C46.2285 143.827 46.3536 143.525 46.5762 143.303C46.7988 143.08 47.1007 142.955 47.4156 142.955H49.5377C49.8525 142.955 50.1544 143.08 50.3771 143.303C50.5997 143.525 50.7247 143.827 50.7247 144.142C50.7247 144.457 50.5997 144.759 50.3771 144.982C50.1544 145.204 49.8525 145.329 49.5377 145.329Z" fill="#426572"/>
<path d="M212.526 145.329H179.044V142.955H212.526C212.841 142.955 213.143 143.08 213.366 143.303C213.588 143.525 213.713 143.827 213.713 144.142C213.713 144.457 213.588 144.759 213.366 144.982C213.143 145.204 212.841 145.329 212.526 145.329Z" fill="#426572"/>
<path d="M41.3456 145.329H7.86133V142.955H41.3456C41.6604 142.955 41.9623 143.08 42.185 143.303C42.4076 143.525 42.5326 143.827 42.5326 144.142C42.5326 144.457 42.4076 144.759 42.185 144.982C41.9623 145.204 41.6604 145.329 41.3456 145.329Z" fill="#426572"/>
<path d="M140.16 16.024C146.537 21.9429 150.949 29.5857 152.711 38.1307C153.341 41.2696 153.651 44.4642 153.636 47.6656C153.636 49.0754 155.827 49.0773 155.827 47.6656C155.816 37.3874 152.708 27.4435 146.274 19.3733C144.876 17.6274 143.35 15.9883 141.708 14.4699C140.676 13.5111 139.122 15.0579 140.158 16.0203L140.16 16.024Z" fill="white"/>
<path d="M128.685 8.35717L128.813 8.41013C128.462 8.26951 128.996 8.49231 129.076 8.52883C129.611 8.77172 130.137 9.03288 130.658 9.30316C132.454 10.2507 134.184 11.3184 135.837 12.4991C136.989 13.3154 138.087 11.4161 136.943 10.6071C134.557 8.916 132 7.31986 129.273 6.2442C127.962 5.72554 127.392 7.84399 128.691 8.35717H128.685Z" fill="white"/>
<defs>
<linearGradient id="paint0_linear_868_6657" x1="0.313098" y1="77.4383" x2="229.193" y2="77.4383" gradientUnits="userSpaceOnUse">
<stop stop-color="#C5E9FA"/>
<stop offset="1" stop-color="#C4F4EA"/>
</linearGradient>
</defs>
</svg>
