<svg width="24" height="22" viewBox="0 0 24 22" fill="none" xmlns="http://www.w3.org/2000/svg">
<path fill-rule="evenodd" clip-rule="evenodd" d="M9.63549 18.7712V18.1266H9.91356L12.0001 14.3815H7.61303V14.9979C7.35993 14.9552 7.16583 14.8719 7.03072 14.748C6.8244 14.5589 6.72124 14.2494 6.72124 13.8196V8.04263H9.6097V7.42646H9.85999L12 3.68141H6.72124V0.873047H2.31117V3.68141H0.0158691V7.42646H0.557457V8.04263H2.31117V13.768C2.31117 15.5389 2.75819 16.8198 3.65224 17.6107C4.54629 18.3844 5.7928 18.7712 7.39177 18.7712H9.63549ZM16.3871 6.81012V7.42645H12.0001L14.0866 3.68141H14.3645V3.03678H16.6082C18.2072 3.03678 19.4537 3.42363 20.3478 4.19732C21.2418 4.98821 21.6888 6.26911 21.6888 8.04002V13.7654H23.4425V14.3815H23.9841V18.1266H21.6888V20.935H17.2788V18.1266H12L14.14 14.3815H14.3903V13.7654H17.2788V7.98844C17.2788 7.5586 17.1756 7.24913 16.9693 7.06C16.8342 6.93617 16.6401 6.85288 16.3871 6.81012Z" fill="url(#paint0_linear_1341_8281)"/>
<defs>
<linearGradient id="paint0_linear_1341_8281" x1="12" y1="0.873047" x2="12" y2="20.935" gradientUnits="userSpaceOnUse">
<stop stop-color="#7AEC78"/>
<stop offset="1" stop-color="#71CF6F"/>
</linearGradient>
</defs>
</svg>
