<svg width="320" height="100" viewBox="0 0 320 100" fill="none" xmlns="http://www.w3.org/2000/svg">
<g clip-path="url(#clip0_342_1789)">
<path d="M42.9173 62.4262V76H34.7731C28.9691 76 24.4445 74.5958 21.1993 71.7875C17.9541 68.9167 16.3315 64.2673 16.3315 57.8393V37.0574H9.96585V23.7644H16.3315V11.0332H32.3391V23.7644H42.8237V37.0574H32.3391V58.0265C32.3391 59.5867 32.7136 60.71 33.4625 61.3965C34.2114 62.083 35.4595 62.4262 37.207 62.4262H42.9173Z" fill="#82D280"/>
<path d="M60.0827 36.9893V23.4155H68.2269C74.0309 23.4155 78.5555 24.8197 81.8007 27.6281C85.0459 30.4988 86.6685 35.1482 86.6685 41.5763V62.3582H93.0341V75.6511H86.6685V88.3823H70.6609V75.6511H60.1763V62.3582H70.6609V41.3891C70.6609 39.8288 70.2864 38.7055 69.5375 38.019C68.7886 37.3325 67.5405 36.9893 65.793 36.9893H60.0827Z" fill="#82D280"/>
<path d="M8 23.4912H51.5001L43.7322 37.085H8V23.4912Z" fill="#82D280"/>
<path d="M95 75.9243H51.4999L59.2678 62.3305H95V75.9243Z" fill="#82D280"/>
<path d="M35.5762 62.3306H51.5003L43.9266 75.9243H35.5762V62.3306Z" fill="#82D280"/>
<path d="M67.4243 37.085H51.5002L59.0739 23.4912H67.4243V37.085Z" fill="#82D280"/>
<path d="M119.649 52.6248V56.406H114.516V72H109.796V56.406H104.662V52.6248H119.649ZM124.391 54.9984C123.563 54.9984 122.883 54.7592 122.349 54.2808C121.834 53.784 121.576 53.1768 121.576 52.4592C121.576 51.7232 121.834 51.116 122.349 50.6376C122.883 50.1408 123.563 49.8924 124.391 49.8924C125.201 49.8924 125.863 50.1408 126.379 50.6376C126.912 51.116 127.179 51.7232 127.179 52.4592C127.179 53.1768 126.912 53.784 126.379 54.2808C125.863 54.7592 125.201 54.9984 124.391 54.9984ZM126.737 56.5992V72H122.018V56.5992H126.737ZM139.542 56.4336C141.345 56.4336 142.78 57.0224 143.847 58.2C144.933 59.3592 145.476 60.96 145.476 63.0024V72H140.784V63.6372C140.784 62.6068 140.517 61.8064 139.983 61.236C139.45 60.6656 138.732 60.3804 137.83 60.3804C136.929 60.3804 136.211 60.6656 135.678 61.236C135.144 61.8064 134.877 62.6068 134.877 63.6372V72H130.158V56.5992H134.877V58.6416C135.356 57.9608 136 57.4272 136.809 57.0408C137.619 56.636 138.53 56.4336 139.542 56.4336ZM164.487 56.5992L154.827 79.314H149.749L153.282 71.4756L147.017 56.5992H152.288L155.849 66.2316L159.381 56.5992H164.487ZM185.981 52.6248V56.406H180.847V72H176.128V56.406H170.994V52.6248H185.981ZM193.069 59.166C193.621 58.3196 194.311 57.6572 195.139 57.1788C195.967 56.682 196.887 56.4336 197.899 56.4336V61.4292H196.602C195.424 61.4292 194.541 61.6868 193.952 62.202C193.363 62.6988 193.069 63.582 193.069 64.8516V72H188.349V56.5992H193.069V59.166ZM214.673 64.0512C214.673 64.4928 214.645 64.9528 214.59 65.4312H203.909C203.982 66.388 204.286 67.124 204.819 67.6392C205.371 68.136 206.043 68.3844 206.834 68.3844C208.012 68.3844 208.831 67.8876 209.291 66.894H214.314C214.056 67.906 213.587 68.8168 212.906 69.6264C212.244 70.436 211.407 71.0708 210.395 71.5308C209.383 71.9908 208.251 72.2208 207 72.2208C205.491 72.2208 204.148 71.8988 202.97 71.2548C201.793 70.6108 200.873 69.6908 200.21 68.4948C199.548 67.2988 199.217 65.9004 199.217 64.2996C199.217 62.6988 199.539 61.3004 200.183 60.1044C200.845 58.9084 201.765 57.9884 202.943 57.3444C204.12 56.7004 205.473 56.3784 207 56.3784C208.49 56.3784 209.815 56.6912 210.974 57.3168C212.133 57.9424 213.035 58.8348 213.679 59.994C214.341 61.1532 214.673 62.5056 214.673 64.0512ZM209.843 62.8092C209.843 61.9996 209.567 61.3556 209.015 60.8772C208.463 60.3988 207.773 60.1596 206.945 60.1596C206.153 60.1596 205.482 60.3896 204.93 60.8496C204.396 61.3096 204.065 61.9628 203.936 62.8092H209.843ZM216.224 64.272C216.224 62.6896 216.518 61.3004 217.107 60.1044C217.714 58.9084 218.533 57.9884 219.564 57.3444C220.594 56.7004 221.744 56.3784 223.014 56.3784C224.099 56.3784 225.047 56.5992 225.856 57.0408C226.684 57.4824 227.319 58.062 227.761 58.7796V56.5992H232.48V72H227.761V69.8196C227.301 70.5372 226.657 71.1168 225.829 71.5584C225.019 72 224.072 72.2208 222.986 72.2208C221.735 72.2208 220.594 71.8988 219.564 71.2548C218.533 70.5924 217.714 69.6632 217.107 68.4672C216.518 67.2528 216.224 65.8544 216.224 64.272ZM227.761 64.2996C227.761 63.122 227.43 62.1928 226.767 61.512C226.123 60.8312 225.332 60.4908 224.394 60.4908C223.455 60.4908 222.655 60.8312 221.992 61.512C221.348 62.1744 221.026 63.0944 221.026 64.272C221.026 65.4496 221.348 66.388 221.992 67.0872C222.655 67.768 223.455 68.1084 224.394 68.1084C225.332 68.1084 226.123 67.768 226.767 67.0872C227.43 66.4064 227.761 65.4772 227.761 64.2996ZM242.16 72.2208C240.817 72.2208 239.621 71.9908 238.572 71.5308C237.523 71.0708 236.695 70.4452 236.088 69.654C235.481 68.8444 235.14 67.9428 235.067 66.9492H239.731C239.786 67.4828 240.035 67.9152 240.476 68.2464C240.918 68.5776 241.461 68.7432 242.105 68.7432C242.694 68.7432 243.144 68.6328 243.457 68.412C243.788 68.1728 243.954 67.8692 243.954 67.5012C243.954 67.0596 243.724 66.7376 243.264 66.5352C242.804 66.3144 242.059 66.0752 241.028 65.8176C239.924 65.56 239.004 65.2932 238.268 65.0172C237.532 64.7228 236.898 64.272 236.364 63.6648C235.83 63.0392 235.564 62.202 235.564 61.1532C235.564 60.27 235.803 59.4696 236.281 58.752C236.778 58.016 237.496 57.4364 238.434 57.0132C239.391 56.59 240.522 56.3784 241.829 56.3784C243.761 56.3784 245.279 56.8568 246.383 57.8136C247.505 58.7704 248.149 60.04 248.315 61.6224H243.954C243.88 61.0888 243.641 60.6656 243.236 60.3528C242.85 60.04 242.335 59.8836 241.691 59.8836C241.139 59.8836 240.716 59.994 240.421 60.2148C240.127 60.4172 239.98 60.7024 239.98 61.0704C239.98 61.512 240.21 61.8432 240.67 62.064C241.148 62.2848 241.884 62.5056 242.878 62.7264C244.018 63.0208 244.948 63.3152 245.665 63.6096C246.383 63.8856 247.008 64.3456 247.542 64.9896C248.094 65.6152 248.379 66.4616 248.398 67.5288C248.398 68.4304 248.14 69.24 247.625 69.9576C247.128 70.6568 246.401 71.2088 245.444 71.6136C244.506 72.0184 243.411 72.2208 242.16 72.2208ZM266.493 56.5992V72H261.773V69.9024C261.295 70.5832 260.641 71.1352 259.813 71.5584C259.004 71.9632 258.102 72.1656 257.109 72.1656C255.931 72.1656 254.891 71.908 253.99 71.3928C253.088 70.8592 252.389 70.0956 251.892 69.102C251.395 68.1084 251.147 66.94 251.147 65.5968V56.5992H255.839V64.962C255.839 65.9924 256.106 66.7928 256.639 67.3632C257.173 67.9336 257.891 68.2188 258.792 68.2188C259.712 68.2188 260.439 67.9336 260.973 67.3632C261.506 66.7928 261.773 65.9924 261.773 64.962V56.5992H266.493ZM274.602 59.166C275.154 58.3196 275.844 57.6572 276.672 57.1788C277.5 56.682 278.42 56.4336 279.432 56.4336V61.4292H278.135C276.957 61.4292 276.074 61.6868 275.485 62.202C274.897 62.6988 274.602 63.582 274.602 64.8516V72H269.883V56.5992H274.602V59.166ZM296.206 64.0512C296.206 64.4928 296.178 64.9528 296.123 65.4312H285.442C285.515 66.388 285.819 67.124 286.353 67.6392C286.905 68.136 287.576 68.3844 288.367 68.3844C289.545 68.3844 290.364 67.8876 290.824 66.894H295.847C295.589 67.906 295.12 68.8168 294.439 69.6264C293.777 70.436 292.94 71.0708 291.928 71.5308C290.916 71.9908 289.784 72.2208 288.533 72.2208C287.024 72.2208 285.681 71.8988 284.503 71.2548C283.326 70.6108 282.406 69.6908 281.743 68.4948C281.081 67.2988 280.75 65.9004 280.75 64.2996C280.75 62.6988 281.072 61.3004 281.716 60.1044C282.378 58.9084 283.298 57.9884 284.476 57.3444C285.653 56.7004 287.006 56.3784 288.533 56.3784C290.023 56.3784 291.348 56.6912 292.507 57.3168C293.667 57.9424 294.568 58.8348 295.212 59.994C295.875 61.1532 296.206 62.5056 296.206 64.0512ZM291.376 62.8092C291.376 61.9996 291.1 61.3556 290.548 60.8772C289.996 60.3988 289.306 60.1596 288.478 60.1596C287.687 60.1596 287.015 60.3896 286.463 60.8496C285.929 61.3096 285.598 61.9628 285.469 62.8092H291.376ZM304.961 72.2208C303.618 72.2208 302.422 71.9908 301.373 71.5308C300.324 71.0708 299.496 70.4452 298.889 69.654C298.282 68.8444 297.941 67.9428 297.868 66.9492H302.532C302.587 67.4828 302.836 67.9152 303.277 68.2464C303.719 68.5776 304.262 68.7432 304.906 68.7432C305.494 68.7432 305.945 68.6328 306.258 68.412C306.589 68.1728 306.755 67.8692 306.755 67.5012C306.755 67.0596 306.525 66.7376 306.065 66.5352C305.605 66.3144 304.86 66.0752 303.829 65.8176C302.725 65.56 301.805 65.2932 301.069 65.0172C300.333 64.7228 299.698 64.272 299.165 63.6648C298.631 63.0392 298.364 62.202 298.364 61.1532C298.364 60.27 298.604 59.4696 299.082 58.752C299.579 58.016 300.296 57.4364 301.235 57.0132C302.192 56.59 303.323 56.3784 304.63 56.3784C306.562 56.3784 308.08 56.8568 309.184 57.8136C310.306 58.7704 310.95 60.04 311.116 61.6224H306.755C306.681 61.0888 306.442 60.6656 306.037 60.3528C305.651 60.04 305.136 59.8836 304.492 59.8836C303.94 59.8836 303.516 59.994 303.222 60.2148C302.928 60.4172 302.78 60.7024 302.78 61.0704C302.78 61.512 303.01 61.8432 303.47 62.064C303.949 62.2848 304.685 62.5056 305.678 62.7264C306.819 63.0208 307.748 63.3152 308.466 63.6096C309.184 63.8856 309.809 64.3456 310.343 64.9896C310.895 65.6152 311.18 66.4616 311.198 67.5288C311.198 68.4304 310.941 69.24 310.426 69.9576C309.929 70.6568 309.202 71.2088 308.245 71.6136C307.307 72.0184 306.212 72.2208 304.961 72.2208Z" fill="#82D280"/>
</g>
<defs>
<clipPath id="clip0_342_1789">
<rect width="320" height="100" fill="white"/>
</clipPath>
</defs>
</svg>
