<svg width="111" height="155" viewBox="0 0 111 155" fill="none" xmlns="http://www.w3.org/2000/svg">
<path opacity="0.4" d="M55.2819 135.47C85.4592 135.47 109.923 111.007 109.923 80.8294C109.923 50.652 85.4592 26.1885 55.2819 26.1885C25.1046 26.1885 0.640991 50.652 0.640991 80.8294C0.640991 111.007 25.1046 135.47 55.2819 135.47Z" fill="#B3E8FF"/>
<path opacity="0.4" d="M56.5149 124.818C81.3448 124.818 101.473 104.689 101.473 79.8589C101.473 55.029 81.3448 34.9004 56.5149 34.9004C31.685 34.9004 11.5563 55.029 11.5563 79.8589C11.5563 104.689 31.685 124.818 56.5149 124.818Z" fill="#B3E8FF"/>
<path opacity="0.4" d="M7.1211 37.8883C9.33661 37.8883 11.1326 36.0923 11.1326 33.8768C11.1326 31.6613 9.33661 29.8652 7.1211 29.8652C4.90558 29.8652 3.10956 31.6613 3.10956 33.8768C3.10956 36.0923 4.90558 37.8883 7.1211 37.8883Z" fill="#B3E8FF"/>
<path opacity="0.4" d="M7.63298 25.3226C8.88219 25.3226 9.89487 24.3099 9.89487 23.0607C9.89487 21.8115 8.88219 20.7988 7.63298 20.7988C6.38378 20.7988 5.37109 21.8115 5.37109 23.0607C5.37109 24.3099 6.38378 25.3226 7.63298 25.3226Z" fill="#B3E8FF"/>
<path opacity="0.5" d="M78.8749 18.7783H31.6906C25.3514 18.7783 20.2124 23.9173 20.2124 30.2565V143.522C20.2124 149.861 25.3514 155 31.6906 155H78.8749C85.2141 155 90.3531 149.861 90.3531 143.522V30.2565C90.3531 23.9173 85.2141 18.7783 78.8749 18.7783Z" fill="#C2CED3"/>
<path d="M79.6532 15.1846H30.7534C25.0754 15.1846 20.4725 19.7875 20.4725 25.4655V139.805C20.4725 145.483 25.0754 150.086 30.7534 150.086H79.6532C85.3312 150.086 89.9342 145.483 89.9342 139.805V25.4655C89.9342 19.7875 85.3312 15.1846 79.6532 15.1846Z" fill="#29C6FF"/>
<path d="M79.586 15.669H30.3989C28.827 15.6666 27.2751 16.0224 25.8612 16.7095C24.4474 17.3966 23.2087 18.3969 22.2393 19.6343C24.0556 18.2251 26.2901 17.4617 28.589 17.4648H77.7781C80.5129 17.4568 83.139 18.5355 85.0787 20.4635C87.0183 22.3914 88.1128 25.0109 88.1213 27.7458V142.088C88.1229 144.377 87.3538 146.6 85.9377 148.399C87.1789 147.443 88.1842 146.214 88.8761 144.809C89.5681 143.403 89.9284 141.857 89.9292 140.29V25.9479C89.925 24.5939 89.6541 23.2539 89.132 22.0045C88.6099 20.7551 87.8469 19.6208 86.8864 18.6663C85.926 17.7118 84.7869 16.9558 83.5343 16.4416C82.2817 15.9273 80.94 15.6648 79.586 15.669Z" fill="#22A6FF"/>
<path d="M79.6526 150.89H30.7528C27.815 150.887 24.9984 149.718 22.9205 147.642C20.8427 145.565 19.6731 142.749 19.6683 139.811V25.4653C19.6715 22.5265 20.8404 19.709 22.9184 17.6309C24.9965 15.5529 27.814 14.384 30.7528 14.3809H79.6526C82.5914 14.384 85.4089 15.5529 87.487 17.6309C89.565 19.709 90.7339 22.5265 90.7371 25.4653V51.2942H89.13V25.4653C89.1274 22.9526 88.128 20.5435 86.3512 18.7667C84.5744 16.9899 82.1653 15.9905 79.6526 15.9879H30.7528C28.24 15.9905 25.831 16.9899 24.0542 18.7667C22.2774 20.5435 21.278 22.9526 21.2754 25.4653V139.811C21.2786 142.324 22.2782 144.732 24.0549 146.509C25.8316 148.285 28.2404 149.284 30.7528 149.287H79.6526C82.165 149.284 84.5738 148.285 86.3505 146.509C88.1272 144.732 89.1268 142.324 89.13 139.811V63.7648H90.7371V139.811C90.7323 142.749 89.5627 145.565 87.4848 147.642C85.407 149.718 82.5903 150.887 79.6526 150.89Z" fill="#213346"/>
<path d="M89.1297 60.0742H90.7367V61.7254H89.1297V60.0742Z" fill="#213346"/>
<path d="M89.1297 53.9307H90.7367V58.5649H89.1297V53.9307Z" fill="#213346"/>
<path d="M80.2611 20.2871H30.1419C27.4305 20.2871 25.2325 22.4852 25.2325 25.1966V139.273C25.2325 141.985 27.4305 144.183 30.1419 144.183H80.2611C82.9725 144.183 85.1705 141.985 85.1705 139.273V25.1966C85.1705 22.4852 82.9725 20.2871 80.2611 20.2871Z" fill="white"/>
<path d="M79.9874 20.5703H29.8582C28.9655 20.5694 28.0895 20.8121 27.3245 21.2723C26.5596 21.7325 25.9347 22.3927 25.5172 23.1817C26.2221 22.8087 27.0077 22.6142 27.8052 22.6153H77.9243C79.2264 22.6153 80.4752 23.1325 81.3959 24.0532C82.3166 24.9739 82.8338 26.2226 82.8338 27.5247V141.62C82.8349 142.418 82.6404 143.204 82.2673 143.91C83.0566 143.492 83.7168 142.867 84.177 142.101C84.6372 141.336 84.8798 140.46 84.8787 139.567V25.4798C84.8788 24.1808 84.364 22.9348 83.4472 22.0146C82.5304 21.0945 81.2863 20.5751 79.9874 20.5703Z" fill="#DCE1FF"/>
<path d="M93.6312 148.099H43.5121C42.0507 148.097 40.6496 147.516 39.6162 146.483C38.5828 145.449 38.0016 144.048 38 142.587V28.5101C38.0021 27.049 38.5836 25.6484 39.6169 24.6155C40.6502 23.5826 42.051 23.0016 43.5121 23H93.6312C95.0926 23.0016 96.4937 23.5828 97.5271 24.6162C98.5605 25.6496 99.1417 27.0507 99.1433 28.5121V142.587C99.1417 144.048 98.5605 145.449 97.5271 146.483C96.4937 147.516 95.0926 148.097 93.6312 148.099ZM43.5121 24.2053C42.3703 24.2069 41.2758 24.6611 40.4685 25.4685C39.6611 26.2758 39.2069 27.3703 39.2053 28.5121V142.587C39.2069 143.729 39.6611 144.823 40.4685 145.63C41.2758 146.438 42.3703 146.892 43.5121 146.894H93.6312C94.7731 146.893 95.868 146.439 96.6754 145.631C97.4829 144.824 97.937 143.729 97.9381 142.587V28.5101C97.9365 27.3685 97.4821 26.2742 96.6747 25.4672C95.8673 24.6602 94.7728 24.2063 93.6312 24.2053H43.5121Z" fill="#213346"/>
<path d="M41.2344 7.5992C41.9311 7.5992 42.4959 7.0344 42.4959 6.33769C42.4959 5.64097 41.9311 5.07617 41.2344 5.07617C40.5377 5.07617 39.9729 5.64097 39.9729 6.33769C39.9729 7.0344 40.5377 7.5992 41.2344 7.5992Z" fill="#FFC62A"/>
<path d="M84.5772 9.50562C86.3268 9.50562 87.7451 8.08733 87.7451 6.33777C87.7451 4.58822 86.3268 3.16992 84.5772 3.16992C82.8277 3.16992 81.4094 4.58822 81.4094 6.33777C81.4094 8.08733 82.8277 9.50562 84.5772 9.50562Z" fill="#B3E8FF"/>
<path d="M89.6543 15.6685C90.3511 15.6685 90.9159 15.1037 90.9159 14.407C90.9159 13.7103 90.3511 13.1455 89.6543 13.1455C88.9576 13.1455 88.3928 13.7103 88.3928 14.407C88.3928 15.1037 88.9576 15.6685 89.6543 15.6685Z" fill="#FFC62A"/>
<path d="M92.8224 4.42928C93.5191 4.42928 94.0839 3.86448 94.0839 3.16777C94.0839 2.47105 93.5191 1.90625 92.8224 1.90625C92.1257 1.90625 91.5609 2.47105 91.5609 3.16777C91.5609 3.86448 92.1257 4.42928 92.8224 4.42928Z" fill="#FF28B3"/>
<path d="M32.0318 11.2615C33.7814 11.2615 35.1997 9.84319 35.1997 8.09363C35.1997 6.34408 33.7814 4.92578 32.0318 4.92578C30.2822 4.92578 28.864 6.34408 28.864 8.09363C28.864 9.84319 30.2822 11.2615 32.0318 11.2615Z" fill="#B3E8FF"/>
<path d="M35.2016 2.52303C35.8984 2.52303 36.4632 1.95823 36.4632 1.26152C36.4632 0.5648 35.8984 0 35.2016 0C34.5049 0 33.9401 0.5648 33.9401 1.26152C33.9401 1.95823 34.5049 2.52303 35.2016 2.52303Z" fill="#FF28B3"/>
<path d="M22.8419 47.8753C22.6821 47.8753 22.5288 47.8118 22.4158 47.6987C22.3028 47.5857 22.2393 47.4324 22.2393 47.2726V34.3702C22.2393 34.2104 22.3028 34.0571 22.4158 33.9441C22.5288 33.8311 22.6821 33.7676 22.8419 33.7676C23.0017 33.7676 23.155 33.8311 23.268 33.9441C23.381 34.0571 23.4445 34.2104 23.4445 34.3702V47.2726C23.4445 47.4324 23.381 47.5857 23.268 47.6987C23.155 47.8118 23.0017 47.8753 22.8419 47.8753Z" fill="white"/>
<path d="M22.8419 52.3444C22.6821 52.3444 22.5288 52.2809 22.4158 52.1679C22.3028 52.0549 22.2393 51.9016 22.2393 51.7418V50.4903C22.2393 50.3305 22.3028 50.1772 22.4158 50.0642C22.5288 49.9512 22.6821 49.8877 22.8419 49.8877C23.0017 49.8877 23.155 49.9512 23.268 50.0642C23.381 50.1772 23.4445 50.3305 23.4445 50.4903V51.7418C23.4445 51.9016 23.381 52.0549 23.268 52.1679C23.155 52.2809 23.0017 52.3444 22.8419 52.3444Z" fill="white"/>
<path d="M38.8219 22.7832V24.4887C38.8219 25.0094 38.9245 25.525 39.1237 26.0061C39.323 26.4872 39.6151 26.9244 39.9833 27.2926C40.3515 27.6608 40.7887 27.9529 41.2698 28.1522C41.7509 28.3514 42.2665 28.454 42.7872 28.454H70.189C70.7104 28.4551 71.227 28.3533 71.709 28.1545C72.191 27.9557 72.6291 27.6637 72.9981 27.2954C73.3672 26.9271 73.66 26.4896 73.8598 26.008C74.0596 25.5264 74.1624 25.0101 74.1624 24.4887V22.7832" fill="#DCE1FF"/>
<path d="M38.5289 19.1807V21.093C38.5289 23.5598 40.3047 25.5606 42.4943 25.5606H69.8981C72.0876 25.5606 73.8634 23.5518 73.8634 21.093V19.1807" fill="#29C6FF"/>
<path d="M70.08 25.9697H42.6762C41.465 25.9686 40.3037 25.487 39.4473 24.6306C38.5909 23.7741 38.1093 22.6129 38.1082 21.4017V19.6982H39.3135V21.4017C39.3145 22.2932 39.6692 23.1479 40.2996 23.7783C40.93 24.4087 41.7847 24.7633 42.6762 24.7644H70.08C70.9715 24.7633 71.8262 24.4087 72.4566 23.7783C73.087 23.1479 73.4416 22.2932 73.4427 21.4017V19.6982H74.648V21.4017C74.6469 22.6129 74.1653 23.7741 73.3089 24.6306C72.4524 25.487 71.2912 25.9686 70.08 25.9697Z" fill="#213346"/>
<path d="M37.86 90.2609H71.9531V90.7972C71.9531 91.5154 71.6678 92.2041 71.16 92.7119C70.6522 93.2197 69.9634 93.505 69.2453 93.505H40.5679C39.8497 93.505 39.161 93.2197 38.6532 92.7119C38.1453 92.2041 37.86 91.5154 37.86 90.7972V90.2568V90.2609Z" fill="#DCE1FF"/>
<path opacity="0.6" d="M39.6733 78.3686C39.4602 78.3686 39.2558 78.2839 39.1051 78.1332C38.9544 77.9826 38.8698 77.7782 38.8698 77.5651V74.2928C38.8698 74.0797 38.9544 73.8753 39.1051 73.7246C39.2558 73.5739 39.4602 73.4893 39.6733 73.4893C39.8864 73.4893 40.0907 73.5739 40.2414 73.7246C40.3921 73.8753 40.4768 74.0797 40.4768 74.2928V77.5651C40.4768 77.7782 40.3921 77.9826 40.2414 78.1332C40.0907 78.2839 39.8864 78.3686 39.6733 78.3686Z" fill="white"/>
<path opacity="0.6" d="M39.6733 81.1996C39.4602 81.1996 39.2558 81.115 39.1051 80.9643C38.9544 80.8136 38.8698 80.6092 38.8698 80.3961V80.2254C38.8698 80.0123 38.9544 79.8079 39.1051 79.6572C39.2558 79.5065 39.4602 79.4219 39.6733 79.4219C39.8864 79.4219 40.0907 79.5065 40.2414 79.6572C40.3921 79.8079 40.4768 80.0123 40.4768 80.2254V80.3961C40.4768 80.6092 40.3921 80.8136 40.2414 80.9643C40.0907 81.115 39.8864 81.1996 39.6733 81.1996Z" fill="white"/>
<path d="M33.0291 101.166H84.2912V104.414H33.0291V101.166Z" fill="#DCE1FF"/>
<path d="M33.0291 109.566H84.2912V112.815H33.0291V109.566Z" fill="#DCE1FF"/>
<path d="M33.0291 120.927H84.2912V124.175H33.0291V120.927Z" fill="#DCE1FF"/>
<path d="M32.4259 115.129H109.555V121.766H32.4259V115.129Z" fill="#EDE9E4"/>
<path d="M32.4259 106.415H100.588V110.656H32.4259V106.415Z" fill="#EDE9E4"/>
<path d="M32.4259 97.7031H95.8773V101.944H32.4259V97.7031Z" fill="#EDE9E4"/>
<path d="M32.4259 98.1973H95.8773V99.2258H32.4259V98.1973Z" fill="white"/>
<path d="M31.7413 107.156H100.588V107.908H31.7413V107.156Z" fill="white"/>
<path d="M32.4259 115.129H109.925V117.21H32.4259V115.129Z" fill="white"/>
<path d="M96.6789 102.992H31.6225V96.8994H96.6789V102.992ZM33.2295 101.385H95.0719V98.5064H33.2295V101.385Z" fill="#213346"/>
<path d="M101.392 111.704H31.6225V105.611H101.392V111.704ZM33.2295 110.097H99.7845V107.218H33.2295V110.097Z" fill="#213346"/>
<path d="M110.359 122.952H31.6151V114.326H110.359V122.952ZM33.2221 121.345H108.752V115.933H33.2221V121.345Z" fill="#213346"/>
<path d="M33.0291 47.8574H84.2912V51.1056H33.0291V47.8574Z" fill="#DCE1FF"/>
<path d="M32.4259 44.3926H95.8773V48.6331H32.4259V44.3926Z" fill="#EDE9E4"/>
<path d="M32.4259 44.8887H95.8773V45.9172H32.4259V44.8887Z" fill="white"/>
<path d="M96.6789 49.6814H31.6225V43.5908H96.6789V49.6814ZM33.2295 48.0744H95.0719V45.1978H33.2295V48.0744Z" fill="#213346"/>
<path d="M60.8539 21.6646H51.1656C50.9525 21.6646 50.7481 21.58 50.5974 21.4293C50.4467 21.2786 50.3621 21.0742 50.3621 20.8611C50.3621 20.648 50.4467 20.4436 50.5974 20.293C50.7481 20.1423 50.9525 20.0576 51.1656 20.0576H60.8539C61.067 20.0576 61.2714 20.1423 61.4221 20.293C61.5728 20.4436 61.6574 20.648 61.6574 20.8611C61.6574 21.0742 61.5728 21.2786 61.4221 21.4293C61.2714 21.58 61.067 21.6646 60.8539 21.6646Z" fill="#213346"/>
<path d="M64.2116 21.6646H64.1654C63.9523 21.6646 63.7479 21.58 63.5972 21.4293C63.4465 21.2786 63.3619 21.0742 63.3619 20.8611C63.3619 20.648 63.4465 20.4436 63.5972 20.293C63.7479 20.1423 63.9523 20.0576 64.1654 20.0576H64.2116C64.4247 20.0576 64.6291 20.1423 64.7798 20.293C64.9304 20.4436 65.0151 20.648 65.0151 20.8611C65.0151 21.0742 64.9304 21.2786 64.7798 21.4293C64.6291 21.58 64.4247 21.6646 64.2116 21.6646Z" fill="#213346"/>
<path d="M44.8472 82.1872C50.6097 82.1872 55.2811 77.5158 55.2811 71.7533C55.2811 65.9908 50.6097 61.3193 44.8472 61.3193C39.0847 61.3193 34.4132 65.9908 34.4132 71.7533C34.4132 77.5158 39.0847 82.1872 44.8472 82.1872Z" fill="#FF2457"/>
<path d="M44.8465 83.357C42.5514 83.3578 40.3075 82.6778 38.3989 81.4032C36.4902 80.1285 35.0024 78.3165 34.1238 76.1962C33.2451 74.0759 33.015 71.7426 33.4626 69.4915C33.9101 67.2405 35.0153 65.1727 36.6382 63.5498C38.2611 61.9268 40.3289 60.8217 42.58 60.3741C44.8311 59.9266 47.1643 60.1567 49.2846 61.0353C51.4049 61.914 53.217 63.4018 54.4916 65.3104C55.7663 67.2191 56.4462 69.4629 56.4454 71.7581C56.4413 74.833 55.218 77.7809 53.0436 79.9552C50.8693 82.1295 47.9215 83.3529 44.8465 83.357ZM44.8465 62.493C43.0139 62.4922 41.2222 63.0349 39.698 64.0525C38.1739 65.0701 36.9858 66.5169 36.2839 68.2098C35.582 69.9027 35.398 71.7657 35.7551 73.5632C36.1121 75.3607 36.9942 77.012 38.2898 78.3081C39.5854 79.6043 41.2363 80.4871 43.0337 80.8449C44.831 81.2027 46.6941 81.0194 48.3873 80.3183C50.0805 79.6171 51.5278 78.4296 52.546 76.9059C53.5642 75.3822 54.1077 73.5907 54.1077 71.7581C54.1067 69.3015 53.1309 66.9456 51.3945 65.2078C49.6581 63.47 47.3031 62.4922 44.8465 62.4891V62.493Z" fill="#213346"/>
<path d="M42.584 68.5221C42.579 68.3932 42.6087 68.2654 42.6699 68.1517C42.7311 68.038 42.8216 67.9426 42.9321 67.8752L44.5594 66.6231C44.663 66.5337 44.7957 66.4848 44.9327 66.4854C45.1286 66.485 45.32 66.5431 45.4822 66.6523C45.5577 66.6932 45.6209 66.7535 45.6651 66.8269C45.7094 66.9003 45.7331 66.9841 45.7338 67.0697V75.9972C45.7334 76.0849 45.7079 76.1707 45.6604 76.2446C45.6129 76.3185 45.5453 76.3774 45.4654 76.4146C45.2709 76.5145 45.0552 76.5666 44.8363 76.5666C44.6174 76.5666 44.4016 76.5145 44.2071 76.4146C44.1285 76.3766 44.0624 76.3173 44.0163 76.2434C43.9703 76.1695 43.9463 76.0841 43.9471 75.9972V68.6682L43.5277 69.1106C43.4737 69.1565 43.4107 69.1906 43.3428 69.2107C43.2748 69.2308 43.2033 69.2365 43.133 69.2275C43.0626 69.2185 42.995 69.1948 42.9344 69.1582C42.8737 69.1215 42.8215 69.0726 42.7811 69.0146C42.6634 68.8761 42.5941 68.7032 42.584 68.5221Z" fill="white"/>
<path opacity="0.5" d="M35.6378 64.5039C35.6088 64.5037 35.58 64.4975 35.5534 64.4858C35.5294 64.4748 35.5078 64.4591 35.4898 64.4397C35.4718 64.4203 35.4579 64.3975 35.4487 64.3727C35.4396 64.3479 35.4354 64.3215 35.4365 64.295C35.4376 64.2686 35.4439 64.2427 35.455 64.2187C35.6797 63.7075 36.0272 63.2597 36.4667 62.9152C36.9062 62.5707 37.424 62.3401 37.974 62.244C38.0273 62.2336 38.0825 62.2448 38.1275 62.2752C38.1726 62.3055 38.2037 62.3525 38.2141 62.4057C38.2245 62.459 38.2133 62.5142 38.1829 62.5592C38.1526 62.6043 38.1057 62.6354 38.0524 62.6458C37.564 62.7274 37.1038 62.9301 36.7139 63.2354C36.3241 63.5407 36.017 63.9388 35.8206 64.3934C35.8036 64.4272 35.7775 64.4554 35.7451 64.475C35.7128 64.4945 35.6756 64.5045 35.6378 64.5039Z" fill="white"/>
<path opacity="0.5" d="M35.2747 65.9282C35.2215 65.9282 35.1704 65.9071 35.1327 65.8694C35.095 65.8317 35.0739 65.7806 35.0739 65.7274C35.0908 65.4382 35.14 65.1519 35.2205 64.8736C35.2349 64.8222 35.2691 64.7786 35.3156 64.7524C35.3621 64.7262 35.4172 64.7196 35.4686 64.734C35.52 64.7484 35.5636 64.7826 35.5898 64.8291C35.6159 64.8757 35.6226 64.9307 35.6082 64.9821C35.5371 65.2291 35.4927 65.483 35.4756 65.7394C35.4725 65.7906 35.45 65.8386 35.4127 65.8737C35.3753 65.9088 35.326 65.9283 35.2747 65.9282Z" fill="white"/>
<path d="M19.6699 36.3588C19.4568 36.3588 19.2524 36.2741 19.1017 36.1234C18.951 35.9727 18.8664 35.7684 18.8664 35.5553V30.7342C18.8664 30.5211 18.951 30.3167 19.1017 30.166C19.2524 30.0153 19.4568 29.9307 19.6699 29.9307C19.883 29.9307 20.0874 30.0153 20.2381 30.166C20.3888 30.3167 20.4734 30.5211 20.4734 30.7342V35.5553C20.4734 35.7684 20.3888 35.9727 20.2381 36.1234C20.0874 36.2741 19.883 36.3588 19.6699 36.3588Z" fill="#213346"/>
<path d="M19.6923 45.0472C19.4792 45.0472 19.2748 44.9626 19.1241 44.8119C18.9735 44.6612 18.8888 44.4568 18.8888 44.2437V39.4227C18.8888 39.2095 18.9735 39.0052 19.1241 38.8545C19.2748 38.7038 19.4792 38.6191 19.6923 38.6191C19.9054 38.6191 20.1098 38.7038 20.2605 38.8545C20.4112 39.0052 20.4958 39.2095 20.4958 39.4227V44.2437C20.4958 44.4568 20.4112 44.6612 20.2605 44.8119C20.1098 44.9626 19.9054 45.0472 19.6923 45.0472Z" fill="#213346"/>
</svg>
